<svg width="192" height="192" viewBox="0 0 192 192" fill="none" xmlns="http://www.w3.org/2000/svg">
<path d="M142.415 56.2976C142.106 56.1654 141.533 55.7687 140.96 55.1956C139.682 53.8292 139.638 51.9338 141.225 50.4351C142.812 49.0246 144.795 49.0687 146.206 50.6555C146.735 51.2726 146.999 51.8016 147.043 52.022L146.382 52.3305C146.294 51.9779 146.029 51.5371 145.633 51.1404C144.575 49.9943 143.12 49.8621 141.798 51.0963C140.608 52.1983 140.431 53.6088 141.533 54.7989C141.886 55.1516 142.327 55.5042 142.679 55.6805L142.415 56.2976Z" fill="#FC0000"/>
<path d="M146.735 54.2701L147.396 55.1076L145.941 57.2674C145.721 57.576 145.368 58.1049 145.148 58.4135C145.5 58.3253 146.294 58.0609 146.823 57.8846L148.983 57.2234L149.644 58.0609L145.985 61.1905L145.5 60.5293L147.308 59.0747C147.704 58.7661 148.145 58.3253 148.674 57.9727C148.233 58.149 147.837 58.2813 147.087 58.5017L144.575 59.251L144.178 58.7661L145.589 56.6503C145.897 56.2536 146.294 55.6806 146.602 55.2839L146.558 55.2398C146.073 55.5484 145.544 55.901 145.148 56.2096L143.252 57.4878L142.767 56.8267L146.735 54.2701Z" fill="#FC0000"/>
<path d="M150.878 64.5841C149.335 65.5098 148.057 64.8486 147.44 63.8789C146.779 62.7769 147.087 61.4104 148.321 60.617C149.688 59.7795 151.054 60.1762 151.76 61.3223C152.509 62.5124 152.156 63.8348 150.878 64.5841ZM148.806 61.3664C147.925 61.8953 147.528 62.821 148.013 63.5703C148.454 64.2756 149.468 64.4078 150.393 63.8348C151.098 63.394 151.76 62.5565 151.187 61.6308C150.702 60.7933 149.644 60.8815 148.806 61.3664Z" fill="#FC0000"/>
<path d="M154.978 67.4497L154.36 67.8023L153.655 66.4799L149.997 68.3753L149.6 67.626L153.258 65.7306L152.553 64.4082L153.17 64.0556L154.978 67.4497Z" fill="#FC0000"/>
<path d="M153.92 68.9484C154.493 68.728 154.978 68.5076 155.374 68.2872L155.683 69.0365L154.934 69.4332C155.639 69.5214 156.124 69.9181 156.432 70.6674C156.873 71.7253 156.3 72.9155 154.934 73.4885C153.303 74.1497 152.113 73.4885 151.716 72.4747C151.496 71.9017 151.496 71.2846 151.848 70.8438L149.424 71.8576L149.071 71.0642L153.92 68.9484ZM153.082 70.2267C152.95 70.2707 152.862 70.3589 152.73 70.403C152.245 70.7997 152.069 71.4168 152.289 71.9898C152.642 72.8714 153.523 73.0477 154.581 72.6069C155.463 72.2543 156.036 71.4168 155.683 70.6234C155.463 70.0503 154.846 69.6977 154.184 69.8299C154.096 69.8299 153.964 69.874 153.832 69.9181L153.082 70.2267Z" fill="#FC0000"/>
<path d="M155.33 75.1192C154.228 75.5159 153.963 76.3975 154.228 77.1909C154.404 77.808 154.625 78.1165 154.889 78.381L154.36 78.7336C154.14 78.5133 153.831 78.0284 153.611 77.279C153.17 75.8685 153.787 74.7225 155.198 74.2817C156.608 73.8409 157.93 74.2817 158.327 75.6481C158.768 77.1468 157.622 77.9402 156.784 78.2488C156.608 78.3369 156.476 78.2929 156.388 78.381L155.33 75.1192ZM156.696 77.3672C157.225 77.1909 157.975 76.706 157.666 75.7804C157.402 74.8988 156.52 74.8106 155.903 74.8988L156.696 77.3672Z" fill="#FC0000"/>
<path d="M159.87 82.0396L159.165 82.2159L158.812 80.7172L154.801 81.6429L154.581 80.8054L158.592 79.8797L158.239 78.381L158.945 78.2047L159.87 82.0396Z" fill="#FC0000"/>
<path d="M160.223 83.8029L158.636 84.0674C158.724 84.2437 158.768 84.5522 158.812 84.8608C158.989 85.9187 158.856 87.1088 157.578 87.3292C157.049 87.4174 156.696 87.2411 156.388 87.0207C155.859 86.5799 155.639 85.7424 155.462 85.0371C155.418 84.5522 155.33 84.1115 155.33 83.7588L160.09 82.9654L160.223 83.8029ZM156.079 84.5082C156.079 84.6845 156.079 84.8608 156.123 85.1694C156.256 85.8305 156.608 86.624 157.358 86.4917C158.195 86.3595 158.195 85.4779 158.151 84.8167C158.107 84.5963 158.063 84.3759 157.975 84.1996L156.079 84.5082Z" fill="#FC0000"/>
<path d="M161.016 90.3268C161.105 90.6795 161.193 91.2966 161.193 91.8255C161.237 92.663 161.149 93.9854 160.135 94.0295C159.562 94.0736 159.121 93.6328 158.989 93.0597C158.901 93.765 158.548 94.294 157.887 94.338C156.609 94.3821 156.388 92.8394 156.3 91.8696C156.3 91.3407 156.256 90.7676 156.256 90.5032L161.016 90.3268ZM156.873 91.3847C156.873 91.6492 156.873 91.8255 156.873 92.09C156.917 92.663 157.093 93.5446 157.755 93.5005C158.46 93.5005 158.592 92.7512 158.548 91.9137L158.504 91.2525L156.873 91.3847ZM159.077 91.2966L159.121 91.9578C159.165 92.619 159.386 93.2801 159.959 93.2361C160.443 93.192 160.664 92.7953 160.576 91.9137C160.576 91.6492 160.532 91.4288 160.488 91.2084L159.077 91.2966Z" fill="#FC0000"/>
<path d="M161.281 96.4096L159.253 96.3215C158.504 96.2774 157.975 96.2774 157.314 96.2333C157.887 96.5419 158.24 96.7182 158.769 97.0708L161.237 98.6576L161.193 99.6715L156.388 99.5392L156.432 98.7017L158.46 98.7899C159.253 98.7899 159.65 98.834 160.444 98.9221C159.826 98.5695 159.474 98.3932 158.989 98.0846C158.24 97.5998 157.358 97.0708 156.521 96.4978L156.565 95.484L161.281 95.6162L161.281 96.4096Z" fill="#FC0000"/>
<path d="M160.576 105.137L156.476 104.652L156.432 105.137L154.272 104.828L154.36 104.123L155.903 104.255L156.3 100.949L154.757 100.729L154.845 100.024L157.005 100.244L156.961 100.641C157.226 100.905 157.578 101.082 157.887 101.214C158.46 101.434 159.077 101.611 159.782 101.699L161.016 101.875L160.576 105.137ZM159.429 102.492C158.812 102.404 158.195 102.228 157.666 102.051C157.358 101.919 157.093 101.743 156.829 101.567L156.564 103.77L160.047 104.167L160.223 102.58L159.429 102.492Z" fill="#FC0000"/>
<path d="M157.666 106.812C156.476 106.592 155.859 107.209 155.683 108.09C155.594 108.707 155.594 109.06 155.639 109.457L154.977 109.501C154.889 109.148 154.889 108.619 155.021 107.87C155.33 106.415 156.432 105.754 157.843 106.019C159.253 106.283 160.223 107.341 159.958 108.751C159.65 110.294 158.195 110.426 157.314 110.25C157.137 110.25 157.005 110.206 156.917 110.118L157.666 106.812ZM157.798 109.501C158.371 109.633 159.253 109.545 159.429 108.575C159.606 107.694 158.9 107.165 158.283 106.988L157.798 109.501Z" fill="#FC0000"/>
<path d="M155.727 115.54C154.007 115.055 153.611 113.6 153.919 112.498C154.272 111.264 155.506 110.559 156.961 110.955C158.504 111.44 159.121 112.675 158.768 113.997C158.327 115.319 157.137 115.98 155.727 115.54ZM156.696 111.837C155.682 111.528 154.757 111.925 154.492 112.719C154.228 113.512 154.801 114.349 155.903 114.658C156.652 114.878 157.798 114.79 158.107 113.776C158.415 112.763 157.578 112.101 156.696 111.837Z" fill="#FC0000"/>
<path d="M134.834 142.428C134.966 142.119 135.363 141.546 135.936 140.973C137.302 139.695 139.197 139.651 140.696 141.238C142.107 142.825 142.063 144.808 140.476 146.219C139.859 146.748 139.33 147.012 139.109 147.056L138.801 146.395C139.153 146.307 139.594 146.042 139.991 145.646C141.137 144.588 141.269 143.133 140.035 141.811C138.933 140.621 137.522 140.444 136.332 141.546C135.98 141.899 135.627 142.34 135.451 142.692L134.834 142.428Z" fill="#FC0000"/>
<path d="M136.817 146.704L135.98 147.365L133.82 145.91C133.511 145.69 132.982 145.337 132.674 145.117C132.762 145.469 133.027 146.263 133.203 146.792L133.864 148.952L133.027 149.613L129.897 145.954L130.558 145.469L132.013 147.277C132.321 147.673 132.762 148.114 133.115 148.643C132.938 148.202 132.806 147.806 132.586 147.056L131.836 144.544L132.321 144.147L134.437 145.558C134.834 145.866 135.407 146.263 135.804 146.571L135.848 146.527C135.539 146.042 135.186 145.514 134.878 145.117L133.6 143.221L134.261 142.737L136.817 146.704Z" fill="#FC0000"/>
<path d="M126.502 150.847C125.577 149.304 126.238 148.026 127.208 147.409C128.31 146.748 129.676 147.056 130.47 148.291C131.307 149.657 130.91 151.023 129.764 151.729C128.574 152.478 127.296 152.081 126.502 150.847ZM129.764 148.82C129.235 147.938 128.31 147.541 127.56 148.026C126.855 148.467 126.723 149.481 127.296 150.406C127.737 151.112 128.574 151.773 129.5 151.2C130.337 150.627 130.249 149.569 129.764 148.82Z" fill="#FC0000"/>
<path d="M123.726 154.946L123.373 154.329L124.696 153.624L122.8 149.966L123.549 149.569L125.445 153.227L126.767 152.522L127.12 153.139L123.726 154.946Z" fill="#FC0000"/>
<path d="M122.183 153.933C122.404 154.506 122.624 154.991 122.845 155.387L122.095 155.696L121.698 154.946C121.61 155.652 121.214 156.137 120.464 156.445C119.406 156.886 118.216 156.313 117.643 154.946C116.982 153.316 117.643 152.125 118.657 151.729C119.23 151.508 119.847 151.508 120.288 151.861L119.274 149.437L120.068 149.084L122.183 153.933ZM120.861 153.051C120.817 152.919 120.729 152.831 120.685 152.698C120.288 152.214 119.671 152.037 119.098 152.258C118.216 152.61 118.04 153.492 118.481 154.55C118.833 155.431 119.671 156.004 120.464 155.652C121.037 155.431 121.39 154.814 121.258 154.153C121.258 154.065 121.214 153.933 121.17 153.8L120.861 153.051Z" fill="#FC0000"/>
<path d="M116.012 155.255C115.616 154.153 114.734 153.889 113.94 154.153C113.323 154.329 113.015 154.55 112.75 154.814L112.398 154.285C112.618 154.065 113.103 153.756 113.852 153.536C115.263 153.095 116.409 153.712 116.85 155.123C117.291 156.533 116.85 157.856 115.483 158.252C113.985 158.693 113.191 157.547 112.883 156.71C112.794 156.533 112.839 156.401 112.75 156.313L116.012 155.255ZM113.764 156.622C113.941 157.15 114.425 157.9 115.351 157.591C116.233 157.327 116.321 156.445 116.233 155.828L113.764 156.622Z" fill="#FC0000"/>
<path d="M109.136 159.839L108.959 159.134L110.458 158.781L109.532 154.77L110.37 154.55L111.295 158.561L112.794 158.208L112.97 158.913L109.136 159.839Z" fill="#FC0000"/>
<path d="M107.328 160.148L107.064 158.561C106.887 158.649 106.579 158.693 106.27 158.737C105.212 158.914 104.022 158.781 103.802 157.503C103.714 156.974 103.89 156.621 104.11 156.313C104.551 155.784 105.389 155.564 106.094 155.387C106.579 155.343 107.02 155.255 107.372 155.255L108.166 160.016L107.328 160.148ZM106.623 156.004C106.447 156.004 106.27 156.004 105.962 156.048C105.301 156.181 104.507 156.533 104.639 157.283C104.772 158.12 105.653 158.12 106.314 158.076C106.535 158.032 106.755 157.988 106.932 157.9L106.623 156.004Z" fill="#FC0000"/>
<path d="M100.761 160.985C100.408 161.073 99.7909 161.162 99.262 161.162C98.4245 161.206 97.1021 161.117 97.058 160.104C97.0139 159.531 97.4547 159.09 98.0278 158.958C97.3225 158.869 96.7935 158.517 96.7495 157.856C96.7054 156.577 98.2481 156.357 99.2179 156.269C99.7468 156.269 100.32 156.225 100.584 156.225L100.761 160.985ZM99.7468 156.798C99.4824 156.798 99.306 156.798 99.0416 156.798C98.4685 156.842 97.587 157.018 97.631 157.679C97.631 158.385 98.3804 158.517 99.2179 158.473L99.8791 158.429L99.7468 156.798ZM99.8791 159.046L99.2179 159.09C98.5567 159.134 97.8955 159.354 97.9396 159.927C97.9837 160.412 98.3804 160.633 99.262 160.544C99.5264 160.544 99.7468 160.5 99.9672 160.456L99.8791 159.046Z" fill="#FC0000"/>
<path d="M94.7219 161.206L94.81 159.178C94.8541 158.429 94.8541 157.9 94.8982 157.238C94.5896 157.811 94.4133 158.164 94.0607 158.693L92.4738 161.161L91.46 161.117L91.5923 156.313L92.4298 156.357L92.3416 158.385C92.3416 159.178 92.2975 159.575 92.2094 160.368C92.562 159.751 92.7383 159.398 93.0469 158.913C93.5317 158.164 94.0607 157.283 94.6337 156.445L95.6475 156.489L95.5153 161.294L94.7219 161.206Z" fill="#FC0000"/>
<path d="M86.0383 160.544L86.5232 156.445L86.0383 156.401L86.3469 154.241L87.0521 154.329L86.9199 155.872L90.2258 156.269L90.4462 154.726L91.1515 154.814L90.9311 156.974L90.5344 156.93C90.2699 157.194 90.0936 157.547 89.9613 157.856C89.7409 158.429 89.5646 159.046 89.4765 159.751L89.3001 160.985L86.0383 160.544ZM88.5949 159.398C88.683 158.781 88.8594 158.164 89.0357 157.635C89.1679 157.327 89.3442 157.062 89.5205 156.798L87.3166 156.533L86.9199 160.015L88.5067 160.192L88.5949 159.398Z" fill="#FC0000"/>
<path d="M84.2751 157.635C84.4955 156.445 83.8784 155.828 82.9968 155.652C82.3797 155.564 82.0271 155.564 81.6304 155.608L81.5863 154.947C81.9389 154.858 82.4679 154.858 83.2172 154.991C84.6718 155.299 85.333 156.401 85.0686 157.812C84.8041 159.222 83.7462 160.192 82.3357 159.928C80.7929 159.619 80.6607 158.164 80.837 157.283C80.837 157.106 80.8811 156.974 80.9692 156.886L84.2751 157.635ZM81.6304 157.724C81.4982 158.297 81.5863 159.178 82.5561 159.355C83.4376 159.531 83.9666 158.826 84.1429 158.208L81.6304 157.724Z" fill="#FC0000"/>
<path d="M75.5915 155.652C76.0763 153.933 77.531 153.536 78.6329 153.845C79.8671 154.197 80.5724 155.431 80.1757 156.886C79.6908 158.429 78.4566 159.046 77.1342 158.693C75.7678 158.296 75.1507 157.062 75.5915 155.652ZM79.25 156.666C79.5586 155.652 79.1619 154.726 78.3685 154.462C77.575 154.197 76.7375 154.77 76.429 155.872C76.2086 156.621 76.2967 157.768 77.3106 158.076C78.2803 158.341 78.9856 157.547 79.25 156.666Z" fill="#FC0000"/>
<path d="M134.834 142.428C134.966 142.119 135.363 141.546 135.936 140.973C137.302 139.695 139.197 139.651 140.696 141.238C142.107 142.825 142.063 144.808 140.476 146.219C139.859 146.748 139.33 147.012 139.109 147.056L138.801 146.395C139.153 146.307 139.594 146.042 139.991 145.646C141.137 144.588 141.269 143.133 140.035 141.811C138.933 140.621 137.522 140.444 136.332 141.546C135.98 141.899 135.627 142.34 135.451 142.692L134.834 142.428Z" fill="#FC0000"/>
<path d="M136.817 146.704L135.98 147.365L133.82 145.91C133.511 145.69 132.982 145.337 132.674 145.117C132.762 145.469 133.027 146.263 133.203 146.792L133.864 148.952L133.027 149.613L129.897 145.954L130.558 145.469L132.013 147.277C132.321 147.673 132.762 148.114 133.115 148.643C132.938 148.202 132.806 147.806 132.586 147.056L131.836 144.544L132.321 144.147L134.437 145.558C134.834 145.866 135.407 146.263 135.804 146.571L135.848 146.527C135.539 146.042 135.186 145.514 134.878 145.117L133.6 143.221L134.261 142.737L136.817 146.704Z" fill="#FC0000"/>
<path d="M126.502 150.847C125.577 149.304 126.238 148.026 127.208 147.409C128.31 146.748 129.676 147.056 130.47 148.291C131.307 149.657 130.91 151.023 129.764 151.729C128.574 152.478 127.296 152.081 126.502 150.847ZM129.764 148.82C129.235 147.938 128.31 147.541 127.56 148.026C126.855 148.467 126.723 149.481 127.296 150.406C127.737 151.112 128.574 151.773 129.5 151.2C130.337 150.627 130.249 149.569 129.764 148.82Z" fill="#FC0000"/>
<path d="M123.726 154.946L123.373 154.329L124.696 153.624L122.8 149.966L123.549 149.569L125.445 153.227L126.767 152.522L127.12 153.139L123.726 154.946Z" fill="#FC0000"/>
<path d="M122.183 153.933C122.404 154.506 122.624 154.991 122.845 155.387L122.095 155.696L121.698 154.946C121.61 155.652 121.214 156.137 120.464 156.445C119.406 156.886 118.216 156.313 117.643 154.946C116.982 153.316 117.643 152.125 118.657 151.729C119.23 151.508 119.847 151.508 120.288 151.861L119.274 149.437L120.068 149.084L122.183 153.933ZM120.861 153.051C120.817 152.919 120.729 152.831 120.685 152.698C120.288 152.214 119.671 152.037 119.098 152.258C118.216 152.61 118.04 153.492 118.481 154.55C118.833 155.431 119.671 156.004 120.464 155.652C121.037 155.431 121.39 154.814 121.258 154.153C121.258 154.065 121.214 153.933 121.17 153.8L120.861 153.051Z" fill="#FC0000"/>
<path d="M116.012 155.255C115.616 154.153 114.734 153.889 113.94 154.153C113.323 154.329 113.015 154.55 112.75 154.814L112.398 154.285C112.618 154.065 113.103 153.756 113.852 153.536C115.263 153.095 116.409 153.712 116.85 155.123C117.291 156.533 116.85 157.856 115.483 158.252C113.985 158.693 113.191 157.547 112.883 156.71C112.794 156.533 112.839 156.401 112.75 156.313L116.012 155.255ZM113.764 156.622C113.941 157.15 114.425 157.9 115.351 157.591C116.233 157.327 116.321 156.445 116.233 155.828L113.764 156.622Z" fill="#FC0000"/>
<path d="M109.136 159.839L108.959 159.134L110.458 158.781L109.532 154.77L110.37 154.55L111.295 158.561L112.794 158.208L112.97 158.913L109.136 159.839Z" fill="#FC0000"/>
<path d="M107.328 160.148L107.064 158.561C106.887 158.649 106.579 158.693 106.27 158.737C105.212 158.914 104.022 158.781 103.802 157.503C103.714 156.974 103.89 156.621 104.11 156.313C104.551 155.784 105.389 155.564 106.094 155.387C106.579 155.343 107.02 155.255 107.372 155.255L108.166 160.016L107.328 160.148ZM106.623 156.004C106.447 156.004 106.27 156.004 105.962 156.048C105.301 156.181 104.507 156.533 104.639 157.283C104.772 158.12 105.653 158.12 106.314 158.076C106.535 158.032 106.755 157.988 106.932 157.9L106.623 156.004Z" fill="#FC0000"/>
<path d="M100.761 160.985C100.408 161.073 99.7909 161.162 99.262 161.162C98.4245 161.206 97.1021 161.117 97.058 160.104C97.0139 159.531 97.4547 159.09 98.0278 158.958C97.3225 158.869 96.7935 158.517 96.7495 157.856C96.7054 156.577 98.2481 156.357 99.2179 156.269C99.7468 156.269 100.32 156.225 100.584 156.225L100.761 160.985ZM99.7468 156.798C99.4824 156.798 99.306 156.798 99.0416 156.798C98.4685 156.842 97.587 157.018 97.631 157.679C97.631 158.385 98.3804 158.517 99.2179 158.473L99.8791 158.429L99.7468 156.798ZM99.8791 159.046L99.2179 159.09C98.5567 159.134 97.8955 159.354 97.9396 159.927C97.9837 160.412 98.3804 160.633 99.262 160.544C99.5264 160.544 99.7468 160.5 99.9672 160.456L99.8791 159.046Z" fill="#FC0000"/>
<path d="M94.7219 161.206L94.81 159.178C94.8541 158.429 94.8541 157.9 94.8982 157.238C94.5896 157.811 94.4133 158.164 94.0607 158.693L92.4738 161.161L91.46 161.117L91.5923 156.313L92.4298 156.357L92.3416 158.385C92.3416 159.178 92.2975 159.575 92.2094 160.368C92.562 159.751 92.7383 159.398 93.0469 158.913C93.5317 158.164 94.0607 157.283 94.6337 156.445L95.6475 156.489L95.5153 161.294L94.7219 161.206Z" fill="#FC0000"/>
<path d="M86.0383 160.544L86.5232 156.445L86.0383 156.401L86.3469 154.241L87.0521 154.329L86.9199 155.872L90.2258 156.269L90.4462 154.726L91.1515 154.814L90.9311 156.974L90.5344 156.93C90.2699 157.194 90.0936 157.547 89.9613 157.856C89.7409 158.429 89.5646 159.046 89.4765 159.751L89.3001 160.985L86.0383 160.544ZM88.5949 159.398C88.683 158.781 88.8594 158.164 89.0357 157.635C89.1679 157.327 89.3442 157.062 89.5205 156.798L87.3166 156.533L86.9199 160.015L88.5067 160.192L88.5949 159.398Z" fill="#FC0000"/>
<path d="M84.2751 157.635C84.4955 156.445 83.8784 155.828 82.9968 155.652C82.3797 155.564 82.0271 155.564 81.6304 155.608L81.5863 154.947C81.9389 154.858 82.4679 154.858 83.2172 154.991C84.6718 155.299 85.333 156.401 85.0686 157.812C84.8041 159.222 83.7462 160.192 82.3357 159.928C80.7929 159.619 80.6607 158.164 80.837 157.283C80.837 157.106 80.8811 156.974 80.9692 156.886L84.2751 157.635ZM81.6304 157.724C81.4982 158.297 81.5863 159.178 82.5561 159.355C83.4376 159.531 83.9666 158.826 84.1429 158.208L81.6304 157.724Z" fill="#FC0000"/>
<path d="M75.5915 155.652C76.0763 153.933 77.531 153.536 78.6329 153.845C79.8671 154.197 80.5724 155.431 80.1757 156.886C79.6908 158.429 78.4566 159.046 77.1342 158.693C75.7678 158.296 75.1507 157.062 75.5915 155.652ZM79.25 156.666C79.5586 155.652 79.1619 154.726 78.3685 154.462C77.575 154.197 76.7375 154.77 76.429 155.872C76.2086 156.621 76.2967 157.768 77.3106 158.076C78.2803 158.341 78.9856 157.547 79.25 156.666Z" fill="#FC0000"/>
<path d="M48.7471 134.802C49.0556 134.934 49.6286 135.331 50.2017 135.904C51.48 137.271 51.524 139.166 49.9372 140.665C48.3504 142.075 46.3668 142.031 44.9563 140.444C44.4273 139.827 44.1629 139.298 44.1188 139.078L44.78 138.769C44.8681 139.122 45.1326 139.563 45.5293 139.959C46.5872 141.106 48.0418 141.238 49.3642 140.004C50.5543 138.902 50.7306 137.491 49.6286 136.301C49.276 135.948 48.8352 135.596 48.4826 135.419L48.7471 134.802Z" fill="#FC0000"/>
<path d="M44.4275 136.83L43.7663 135.992L45.2209 133.832C45.4413 133.524 45.7939 132.995 46.0143 132.686C45.6617 132.774 44.8683 133.039 44.3393 133.215L42.1795 133.876L41.5183 133.039L45.1768 129.909L45.6617 130.57L43.8545 132.025C43.4578 132.334 43.017 132.774 42.488 133.127C42.9288 132.951 43.3255 132.818 44.0749 132.598L46.5874 131.849L46.9841 132.334L45.5735 134.449C45.265 134.846 44.8683 135.419 44.5597 135.816L44.6038 135.86C45.0887 135.551 45.6176 135.199 46.0143 134.89L47.9097 133.612L48.3946 134.273L44.4275 136.83Z" fill="#FC0000"/>
<path d="M40.3283 126.471C41.8711 125.546 43.1494 126.207 43.7665 127.177C44.4277 128.279 44.1191 129.645 42.8849 130.438C41.5184 131.276 40.152 130.879 39.4467 129.733C38.6533 128.587 39.05 127.221 40.3283 126.471ZM42.3119 129.689C43.1934 129.16 43.5902 128.234 43.1053 127.485C42.6645 126.78 41.6507 126.648 40.725 127.221C40.0198 127.661 39.3586 128.499 39.9316 129.425C40.4605 130.306 41.5625 130.174 42.3119 129.689Z" fill="#FC0000"/>
<path d="M36.1847 123.65L36.8018 123.298L37.507 124.62L41.1656 122.725L41.5623 123.474L37.9037 125.369L38.609 126.692L37.9919 127.044L36.1847 123.65Z" fill="#FC0000"/>
<path d="M37.2425 122.151C36.6695 122.372 36.1846 122.592 35.7879 122.812L35.4793 122.063L36.2287 121.666C35.5234 121.578 35.0385 121.181 34.73 120.432C34.2892 119.374 34.8622 118.184 36.2287 117.611C37.8596 116.95 39.0497 117.611 39.4464 118.625C39.6668 119.198 39.6668 119.815 39.3142 120.256L41.7385 119.242L42.0912 120.035L37.2425 122.151ZM38.08 120.873C38.2122 120.829 38.3004 120.741 38.4326 120.697C38.9175 120.3 39.0938 119.683 38.8734 119.11C38.5208 118.228 37.6392 118.052 36.5813 118.493C35.6997 118.845 35.1267 119.683 35.4793 120.476C35.6997 121.049 36.3168 121.402 36.978 121.27C37.0662 121.27 37.1984 121.226 37.3306 121.182L38.08 120.873Z" fill="#FC0000"/>
<path d="M35.8323 115.98C36.9342 115.584 37.1987 114.702 36.9342 113.909C36.7579 113.292 36.5375 112.983 36.273 112.718L36.802 112.366C37.0224 112.586 37.3309 113.071 37.5513 113.82C37.9921 115.231 37.375 116.377 35.9645 116.818C34.554 117.259 33.2316 116.818 32.8349 115.451C32.3941 113.953 33.5401 113.159 34.3776 112.851C34.554 112.763 34.6862 112.807 34.7744 112.718L35.8323 115.98ZM34.4658 113.732C33.9369 113.909 33.1875 114.393 33.4961 115.319C33.7605 116.201 34.6421 116.289 35.2592 116.201L34.4658 113.732Z" fill="#FC0000"/>
<path d="M31.292 109.06L31.9973 108.884L32.3499 110.382L36.3611 109.457L36.5815 110.294L32.5703 111.22L32.9229 112.718L32.2176 112.895L31.292 109.06Z" fill="#FC0000"/>
<path d="M30.9394 107.297L32.5263 107.032C32.4381 106.856 32.394 106.547 32.35 106.239C32.1736 105.181 32.3059 103.991 33.5842 103.77C34.1131 103.682 34.4657 103.859 34.7743 104.079C35.3032 104.52 35.5236 105.357 35.7 106.062C35.744 106.547 35.8322 106.988 35.8322 107.341L31.0717 108.134L30.9394 107.297ZM35.1269 106.547C35.1269 106.371 35.1269 106.195 35.0829 105.886C34.9506 105.225 34.598 104.432 33.8486 104.564C33.0111 104.696 33.0111 105.578 33.0552 106.239C33.0993 106.459 33.1434 106.68 33.2315 106.856L35.1269 106.547Z" fill="#FC0000"/>
<path d="M30.146 100.773C30.0579 100.421 29.9697 99.8035 29.9697 99.2746C29.9257 98.4371 30.0138 97.1147 31.0276 97.0706C31.6007 97.0265 32.0414 97.4673 32.1737 98.0403C32.2618 97.3351 32.6145 96.8061 33.2757 96.7621C34.5539 96.718 34.7743 98.2607 34.8625 99.2305C34.8625 99.7594 34.9066 100.332 34.9066 100.597L30.146 100.773ZM32.0855 99.8035L32.0414 99.1423C31.9974 98.4811 31.777 97.82 31.2039 97.864C30.7191 97.9081 30.4987 98.3048 30.5868 99.1864C30.5868 99.4509 30.6309 99.6713 30.675 99.8917L32.0855 99.8035ZM34.2895 99.7153C34.2895 99.4509 34.2895 99.2746 34.2895 99.0101C34.2454 98.4371 34.0691 97.5555 33.4079 97.5996C32.7026 97.5996 32.5704 98.3489 32.6145 99.1864L32.6585 99.8476L34.2895 99.7153Z" fill="#FC0000"/>
<path d="M29.8813 94.6901L31.9089 94.7782C32.6583 94.8223 33.1872 94.8223 33.8484 94.8664C33.2754 94.5578 32.9228 94.3815 32.3938 94.0289L29.9254 92.442L29.9695 91.4282L34.7741 91.5604L34.73 92.3979L32.7024 92.3098C31.9089 92.3098 31.5122 92.2657 30.7188 92.1776C31.3359 92.5302 31.6886 92.7065 32.1734 93.0151C32.9228 93.4999 33.8043 94.0289 34.6418 94.6019L34.5978 95.6157L29.7932 95.4835L29.8813 94.6901Z" fill="#FC0000"/>
<path d="M30.5869 85.9628L34.6862 86.4477L34.7303 85.9628L36.8901 86.2713L36.802 86.9766L35.2592 86.8444L34.8625 90.1503L36.4053 90.3707L36.3171 91.0759L34.1573 90.8556L34.2013 90.4588C33.9369 90.1944 33.5842 90.0181 33.2757 89.8858C32.7027 89.6654 32.0855 89.4891 31.3803 89.4009L30.1461 89.2246L30.5869 85.9628ZM31.777 88.5634C32.3941 88.6516 33.0112 88.8279 33.5402 89.0042C33.8487 89.1365 34.1132 89.3128 34.3776 89.4891L34.6421 87.2852L31.1599 86.8884L30.9836 88.4753L31.777 88.5634Z" fill="#FC0000"/>
<path d="M33.4516 84.2435C34.6418 84.4639 35.2589 83.8468 35.4352 82.9652C35.5234 82.3481 35.5234 81.9955 35.4793 81.5988L36.1405 81.5547C36.2286 81.9074 36.2286 82.4363 36.0964 83.1856C35.7878 84.6402 34.6859 85.3014 33.2753 85.037C31.8648 84.7725 30.8951 83.7146 31.1595 82.3041C31.4681 80.7613 32.9227 80.6291 33.8043 80.8054C33.9806 80.8054 34.1128 80.8495 34.201 80.9376L33.4516 84.2435ZM33.3635 81.5988C32.7905 81.4666 31.9089 81.5547 31.7326 82.5245C31.5563 83.406 32.2615 83.935 32.8786 84.1113L33.3635 81.5988Z" fill="#FC0000"/>
<path d="M35.4796 75.5163C37.1987 76.0011 37.5954 77.4557 37.2869 78.5577C36.9342 79.7919 35.7 80.4972 34.2454 80.1005C32.7027 79.6156 32.0856 78.3814 32.4382 77.059C32.7908 75.7367 34.025 75.1196 35.4796 75.5163ZM34.4217 79.2189C35.4356 79.5275 36.3612 79.1307 36.6257 78.3373C36.8902 77.5439 36.3171 76.7064 35.2152 76.3978C34.4658 76.1775 33.3198 76.2656 33.0112 77.2794C32.7908 78.2932 33.5402 78.9544 34.4217 79.2189Z" fill="#FC0000"/>
<path d="M56.3286 48.6721C56.1964 48.9807 55.7997 49.5537 55.2267 50.1267C53.8602 51.405 51.9648 51.4491 50.4661 49.8623C49.0556 48.2754 49.0997 46.2919 50.6865 44.8814C51.3036 44.3524 51.8326 44.0879 52.053 44.0439L52.3615 44.705C52.0089 44.7932 51.5681 45.0577 51.1714 45.4544C50.0254 46.5123 49.8931 47.9669 51.1273 49.2892C52.2293 50.4794 53.6398 50.6557 54.83 49.5537C55.1826 49.2011 55.5352 48.7603 55.7115 48.4077L56.3286 48.6721Z" fill="#FC0000"/>
<path d="M54.3453 44.3965L55.1828 43.7353L57.3427 45.1899C57.6512 45.4103 58.1802 45.763 58.4887 45.9834C58.3565 45.5867 58.1361 44.8373 57.9598 44.3084L57.2986 42.1485L58.1361 41.4873L61.2657 45.1459L60.6045 45.6307L59.1499 43.8235C58.8414 43.4268 58.4006 42.986 58.0479 42.4571C58.2243 42.986 58.3565 43.3827 58.621 44.088L59.3703 46.6005L58.8854 46.9972L56.7697 45.5867C56.3289 45.3222 55.7118 44.8814 55.3591 44.6169L55.315 44.661C55.6236 45.1459 55.9762 45.6748 56.2848 46.0715L57.5631 47.9669L56.9019 48.4518L54.3453 44.3965Z" fill="#FC0000"/>
<path d="M64.6596 40.2529C65.5853 41.7957 64.9241 43.0739 63.9543 43.691C62.8524 44.3522 61.4859 44.0437 60.6925 42.8095C59.855 41.443 60.2517 40.0766 61.3978 39.3713C62.5879 38.622 63.9103 38.9746 64.6596 40.2529ZM61.3978 42.2805C61.9267 43.1621 62.8524 43.5588 63.6017 43.0739C64.307 42.6331 64.4392 41.6193 63.8662 40.6937C63.4254 39.9884 62.5879 39.3272 61.6622 39.9003C60.8247 40.4733 60.957 41.4871 61.3978 42.2805Z" fill="#FC0000"/>
<path d="M67.4364 36.1535L67.789 36.7706L66.4666 37.4759L68.362 41.1344L67.5245 41.5311L65.6291 37.8726L64.3068 38.5779L63.9541 37.9607L67.4364 36.1535Z" fill="#FC0000"/>
<path d="M68.9795 37.1677C68.7591 36.5947 68.5387 36.1098 68.3183 35.7131L69.0676 35.4046L69.4643 36.1539C69.5525 35.4486 69.9492 34.9638 70.6985 34.6552C71.7564 34.2144 72.9466 34.7875 73.5196 36.1539C74.1808 37.7848 73.5196 38.975 72.5058 39.3717C71.9328 39.5921 71.3157 39.5921 70.8749 39.2394L71.8887 41.6638L71.0953 42.0164L68.9795 37.1677ZM70.2578 38.0052C70.3018 38.1375 70.39 38.2256 70.4341 38.3579C70.8308 38.8427 71.4479 39.019 72.0209 38.7986C72.9025 38.446 73.0788 37.5644 72.638 36.5065C72.2854 35.625 71.4479 35.0519 70.6545 35.4046C70.0814 35.625 69.7288 36.2421 69.861 36.9032C69.861 36.9914 69.9051 37.1236 69.9492 37.2559L70.2578 38.0052Z" fill="#FC0000"/>
<path d="M75.1507 35.8454C75.5474 36.9474 76.429 37.2118 77.2224 36.9474C77.8395 36.771 78.148 36.5506 78.4125 36.2862L78.7651 36.8151C78.5447 37.0355 78.0599 37.3441 77.3105 37.5645C75.9 38.0053 74.754 37.3881 74.3132 35.9776C73.8724 34.5671 74.3132 33.2447 75.6796 32.848C77.1783 32.4072 77.9717 33.5533 78.2803 34.3908C78.3684 34.5671 78.3243 34.6993 78.4125 34.7875L75.1507 35.8454ZM77.4428 34.4349C77.2664 33.9059 76.7816 33.1566 75.8559 33.4651C74.9743 33.7296 74.8862 34.6112 74.9743 35.2283L77.4428 34.4349Z" fill="#FC0000"/>
<path d="M82.0266 31.2608L82.2029 31.9661L80.7043 32.3187L81.6299 36.3299L80.7924 36.5503L79.8668 32.5391L78.3681 32.8917L78.1918 32.1865L82.0266 31.2608Z" fill="#FC0000"/>
<path d="M83.878 30.9081L84.1425 32.495C84.3188 32.4068 84.6274 32.3627 84.9359 32.3186C85.9938 32.1423 87.1839 32.2746 87.4043 33.5529C87.4925 34.0818 87.3162 34.4344 87.0958 34.743C86.655 35.2719 85.8175 35.4923 85.1122 35.6686C84.6274 35.7127 84.1866 35.8009 83.8339 35.8009L82.9964 31.0844L83.878 30.9081ZM84.5392 35.0956C84.7155 35.0956 84.8918 35.0956 85.2004 35.0515C85.8616 34.9193 86.655 34.5667 86.5227 33.8173C86.3905 32.9798 85.5089 32.9798 84.8477 33.0239C84.6274 33.068 84.407 33.1121 84.2306 33.2002L84.5392 35.0956Z" fill="#FC0000"/>
<path d="M90.4018 30.115C90.7544 30.0268 91.3715 29.9386 91.9005 29.9386C92.738 29.8946 94.0603 29.9827 94.1044 30.9965C94.1485 31.5696 93.7077 32.0104 93.1347 32.1426C93.8399 32.2308 94.3689 32.5834 94.413 33.2446C94.4571 34.5229 92.9143 34.7433 91.9446 34.8314C91.4156 34.8314 90.8426 34.8755 90.5781 34.8755L90.4018 30.115ZM91.3274 32.0104L91.9886 31.9663C92.6498 31.9222 93.311 31.7018 93.2669 31.1288C93.2228 30.6439 92.8261 30.4235 91.9446 30.5117C91.6801 30.5117 91.4597 30.5558 91.2393 30.5998L91.3274 32.0104ZM91.4597 34.2584C91.7242 34.2584 91.9005 34.2584 92.1649 34.2584C92.738 34.2143 93.6196 34.038 93.5755 33.3768C93.5755 32.6715 92.8261 32.5393 91.9886 32.5834L91.3274 32.6275L91.4597 34.2584Z" fill="#FC0000"/>
<path d="M96.4406 29.8947L96.3525 31.9223C96.3084 32.6716 96.3084 33.2006 96.2643 33.8618C96.5729 33.2887 96.7492 32.9361 97.1018 32.4072L98.6886 29.9387L99.7025 29.9828L99.5702 34.7874L98.7327 34.7433L98.8209 32.7157C98.8209 31.9223 98.865 31.5256 98.9531 30.7322C98.6005 31.3493 98.4242 31.7019 98.1156 32.1868C97.6307 32.9361 97.1018 33.8177 96.5288 34.6552L95.515 34.6111L95.6472 29.8065L96.4406 29.8947Z" fill="#FC0000"/>
<path d="M105.124 30.5558L104.64 34.6552L105.124 34.6992L104.816 36.8591L104.111 36.771L104.331 35.3163L101.025 34.9196L100.805 36.4624L100.099 36.3742L100.32 34.2144L100.717 34.2585C100.981 33.994 101.157 33.6413 101.29 33.3328C101.51 32.7598 101.686 32.1427 101.774 31.4374L101.951 30.2032L105.124 30.5558ZM102.568 31.7019C102.48 32.319 102.303 32.9361 102.127 33.465C101.995 33.7736 101.819 34.0381 101.642 34.3025L103.846 34.567L104.243 31.0848L102.656 30.9085L102.568 31.7019Z" fill="#FC0000"/>
<path d="M106.887 33.4647C106.667 34.6548 107.284 35.2719 108.166 35.4482C108.783 35.5364 109.135 35.5364 109.532 35.4923L109.576 36.1535C109.223 36.2416 108.695 36.2416 107.945 36.1094C106.491 35.8009 105.829 34.6989 106.094 33.2884C106.358 31.8778 107.416 30.9081 108.827 31.1726C110.37 31.4811 110.502 32.9357 110.325 33.8173C110.325 33.9936 110.281 34.1259 110.193 34.214L106.887 33.4647ZM109.532 33.3765C109.664 32.8035 109.576 31.9219 108.606 31.7456C107.725 31.5693 107.196 32.2745 107.02 32.8916L109.532 33.3765Z" fill="#FC0000"/>
<path d="M115.571 35.4485C115.086 37.1676 113.631 37.5643 112.529 37.2557C111.295 36.9031 110.59 35.6689 110.987 34.2143C111.471 32.6715 112.706 32.0544 114.028 32.4071C115.394 32.8038 116.012 34.038 115.571 35.4485ZM111.912 34.4347C111.604 35.4485 112 36.3742 112.794 36.6386C113.587 36.9031 114.425 36.3301 114.733 35.2281C114.954 34.4788 114.865 33.3327 113.852 33.0242C112.838 32.7156 112.133 33.509 111.912 34.4347Z" fill="#FC0000"/>
<path d="M56.3286 48.6721C56.1964 48.9807 55.7997 49.5537 55.2267 50.1267C53.8602 51.405 51.9648 51.4491 50.4661 49.8623C49.0556 48.2754 49.0997 46.2919 50.6865 44.8814C51.3036 44.3524 51.8326 44.0879 52.053 44.0439L52.3615 44.705C52.0089 44.7932 51.5681 45.0577 51.1714 45.4544C50.0254 46.5123 49.8931 47.9669 51.1273 49.2892C52.2293 50.4794 53.6398 50.6557 54.83 49.5537C55.1826 49.2011 55.5352 48.7603 55.7115 48.4077L56.3286 48.6721Z" fill="#FC0000"/>
<path d="M54.3453 44.3965L55.1828 43.7353L57.3427 45.1899C57.6512 45.4103 58.1802 45.763 58.4887 45.9834C58.3565 45.5867 58.1361 44.8373 57.9598 44.3084L57.2986 42.1485L58.1361 41.4873L61.2657 45.1459L60.6045 45.6307L59.1499 43.8235C58.8414 43.4268 58.4006 42.986 58.0479 42.4571C58.2243 42.986 58.3565 43.3827 58.621 44.088L59.3703 46.6005L58.8854 46.9972L56.7697 45.5867C56.3289 45.3222 55.7118 44.8814 55.3591 44.6169L55.315 44.661C55.6236 45.1459 55.9762 45.6748 56.2848 46.0715L57.5631 47.9669L56.9019 48.4518L54.3453 44.3965Z" fill="#FC0000"/>
<path d="M64.6596 40.2529C65.5853 41.7957 64.9241 43.0739 63.9543 43.691C62.8524 44.3522 61.4859 44.0437 60.6925 42.8095C59.855 41.443 60.2517 40.0766 61.3978 39.3713C62.5879 38.622 63.9103 38.9746 64.6596 40.2529ZM61.3978 42.2805C61.9267 43.1621 62.8524 43.5588 63.6017 43.0739C64.307 42.6331 64.4392 41.6193 63.8662 40.6937C63.4254 39.9884 62.5879 39.3272 61.6622 39.9003C60.8247 40.4733 60.957 41.4871 61.3978 42.2805Z" fill="#FC0000"/>
<path d="M67.4364 36.1535L67.789 36.7706L66.4666 37.4759L68.362 41.1344L67.5245 41.5311L65.6291 37.8726L64.3068 38.5779L63.9541 37.9607L67.4364 36.1535Z" fill="#FC0000"/>
<path d="M68.9795 37.1677C68.7591 36.5947 68.5387 36.1098 68.3183 35.7131L69.0676 35.4046L69.4643 36.1539C69.5525 35.4486 69.9492 34.9638 70.6985 34.6552C71.7564 34.2144 72.9466 34.7875 73.5196 36.1539C74.1808 37.7848 73.5196 38.975 72.5058 39.3717C71.9328 39.5921 71.3157 39.5921 70.8749 39.2394L71.8887 41.6638L71.0953 42.0164L68.9795 37.1677ZM70.2578 38.0052C70.3018 38.1375 70.39 38.2256 70.4341 38.3579C70.8308 38.8427 71.4479 39.019 72.0209 38.7986C72.9025 38.446 73.0788 37.5644 72.638 36.5065C72.2854 35.625 71.4479 35.0519 70.6545 35.4046C70.0814 35.625 69.7288 36.2421 69.861 36.9032C69.861 36.9914 69.9051 37.1236 69.9492 37.2559L70.2578 38.0052Z" fill="#FC0000"/>
<path d="M75.1507 35.8454C75.5474 36.9474 76.429 37.2118 77.2224 36.9474C77.8395 36.771 78.148 36.5506 78.4125 36.2862L78.7651 36.8151C78.5447 37.0355 78.0599 37.3441 77.3105 37.5645C75.9 38.0053 74.754 37.3881 74.3132 35.9776C73.8724 34.5671 74.3132 33.2447 75.6796 32.848C77.1783 32.4072 77.9717 33.5533 78.2803 34.3908C78.3684 34.5671 78.3243 34.6993 78.4125 34.7875L75.1507 35.8454ZM77.4428 34.4349C77.2664 33.9059 76.7816 33.1566 75.8559 33.4651C74.9743 33.7296 74.8862 34.6112 74.9743 35.2283L77.4428 34.4349Z" fill="#FC0000"/>
<path d="M82.0266 31.2608L82.2029 31.9661L80.7043 32.3187L81.6299 36.3299L80.7924 36.5503L79.8668 32.5391L78.3681 32.8917L78.1918 32.1865L82.0266 31.2608Z" fill="#FC0000"/>
<path d="M83.878 30.9081L84.1425 32.495C84.3188 32.4068 84.6274 32.3627 84.9359 32.3186C85.9938 32.1423 87.1839 32.2746 87.4043 33.5529C87.4925 34.0818 87.3162 34.4344 87.0958 34.743C86.655 35.2719 85.8175 35.4923 85.1122 35.6686C84.6274 35.7127 84.1866 35.8009 83.8339 35.8009L82.9964 31.0844L83.878 30.9081ZM84.5392 35.0956C84.7155 35.0956 84.8918 35.0956 85.2004 35.0515C85.8616 34.9193 86.655 34.5667 86.5227 33.8173C86.3905 32.9798 85.5089 32.9798 84.8477 33.0239C84.6274 33.068 84.407 33.1121 84.2306 33.2002L84.5392 35.0956Z" fill="#FC0000"/>
<path d="M90.4018 30.115C90.7544 30.0268 91.3715 29.9386 91.9005 29.9386C92.738 29.8946 94.0603 29.9827 94.1044 30.9965C94.1485 31.5696 93.7077 32.0104 93.1347 32.1426C93.8399 32.2308 94.3689 32.5834 94.413 33.2446C94.4571 34.5229 92.9143 34.7433 91.9446 34.8314C91.4156 34.8314 90.8426 34.8755 90.5781 34.8755L90.4018 30.115ZM91.3274 32.0104L91.9886 31.9663C92.6498 31.9222 93.311 31.7018 93.2669 31.1288C93.2228 30.6439 92.8261 30.4235 91.9446 30.5117C91.6801 30.5117 91.4597 30.5558 91.2393 30.5998L91.3274 32.0104ZM91.4597 34.2584C91.7242 34.2584 91.9005 34.2584 92.1649 34.2584C92.738 34.2143 93.6196 34.038 93.5755 33.3768C93.5755 32.6715 92.8261 32.5393 91.9886 32.5834L91.3274 32.6275L91.4597 34.2584Z" fill="#FC0000"/>
<path d="M96.4406 29.8947L96.3525 31.9223C96.3084 32.6716 96.3084 33.2006 96.2643 33.8618C96.5729 33.2887 96.7492 32.9361 97.1018 32.4072L98.6886 29.9387L99.7025 29.9828L99.5702 34.7874L98.7327 34.7433L98.8209 32.7157C98.8209 31.9223 98.865 31.5256 98.9531 30.7322C98.6005 31.3493 98.4242 31.7019 98.1156 32.1868C97.6307 32.9361 97.1018 33.8177 96.5288 34.6552L95.515 34.6111L95.6472 29.8065L96.4406 29.8947Z" fill="#FC0000"/>
<path d="M105.124 30.5558L104.64 34.6552L105.124 34.6992L104.816 36.8591L104.111 36.771L104.331 35.3163L101.025 34.9196L100.805 36.4624L100.099 36.3742L100.32 34.2144L100.717 34.2585C100.981 33.994 101.157 33.6413 101.29 33.3328C101.51 32.7598 101.686 32.1427 101.774 31.4374L101.951 30.2032L105.124 30.5558ZM102.568 31.7019C102.48 32.319 102.303 32.9361 102.127 33.465C101.995 33.7736 101.819 34.0381 101.642 34.3025L103.846 34.567L104.243 31.0848L102.656 30.9085L102.568 31.7019Z" fill="#FC0000"/>
<path d="M106.887 33.4647C106.667 34.6548 107.284 35.2719 108.166 35.4482C108.783 35.5364 109.135 35.5364 109.532 35.4923L109.576 36.1535C109.223 36.2416 108.695 36.2416 107.945 36.1094C106.491 35.8009 105.829 34.6989 106.094 33.2884C106.358 31.8778 107.416 30.9081 108.827 31.1726C110.37 31.4811 110.502 32.9357 110.325 33.8173C110.325 33.9936 110.281 34.1259 110.193 34.214L106.887 33.4647ZM109.532 33.3765C109.664 32.8035 109.576 31.9219 108.606 31.7456C107.725 31.5693 107.196 32.2745 107.02 32.8916L109.532 33.3765Z" fill="#FC0000"/>
<path d="M115.571 35.4485C115.086 37.1676 113.631 37.5643 112.529 37.2557C111.295 36.9031 110.59 35.6689 110.987 34.2143C111.471 32.6715 112.706 32.0544 114.028 32.4071C115.394 32.8038 116.012 34.038 115.571 35.4485ZM111.912 34.4347C111.604 35.4485 112 36.3742 112.794 36.6386C113.587 36.9031 114.425 36.3301 114.733 35.2281C114.954 34.4788 114.865 33.3327 113.852 33.0242C112.838 32.7156 112.133 33.509 111.912 34.4347Z" fill="#FC0000"/>
</svg>
