<svg width="192" height="192" viewBox="0 0 192 192" fill="none" xmlns="http://www.w3.org/2000/svg">
<path d="M142.386 56.2976C142.078 56.1654 141.505 55.7687 140.931 55.1956C139.653 53.8292 139.609 51.9338 141.196 50.4351C142.783 49.0246 144.766 49.0687 146.177 50.6555C146.706 51.2726 146.97 51.8016 147.014 52.022L146.353 52.3305C146.265 51.9779 146.001 51.5371 145.604 51.1404C144.546 49.9943 143.091 49.8621 141.769 51.0963C140.579 52.1983 140.403 53.6088 141.505 54.7989C141.857 55.1516 142.298 55.5042 142.651 55.6805L142.386 56.2976Z" fill="#B90303"/>
<path d="M146.706 54.2701L147.367 55.1076L145.912 57.2674C145.692 57.576 145.339 58.1049 145.119 58.4135C145.472 58.3253 146.265 58.0609 146.794 57.8846L148.954 57.2234L149.615 58.0609L145.956 61.1905L145.472 60.5293L147.279 59.0747C147.675 58.7661 148.116 58.3253 148.645 57.9727C148.204 58.149 147.808 58.2813 147.058 58.5017L144.546 59.251L144.149 58.7661L145.56 56.6503C145.868 56.2536 146.265 55.6806 146.574 55.2839L146.529 55.2398C146.045 55.5484 145.516 55.901 145.119 56.2096L143.224 57.4878L142.739 56.8267L146.706 54.2701Z" fill="#B90303"/>
<path d="M150.849 64.5841C149.306 65.5098 148.028 64.8486 147.411 63.8789C146.75 62.7769 147.058 61.4104 148.293 60.617C149.659 59.7795 151.026 60.1762 151.731 61.3223C152.48 62.5124 152.128 63.8348 150.849 64.5841ZM148.778 61.3664C147.896 61.8953 147.499 62.821 147.984 63.5703C148.425 64.2756 149.439 64.4078 150.364 63.8348C151.07 63.394 151.731 62.5565 151.158 61.6308C150.673 60.7933 149.615 60.8815 148.778 61.3664Z" fill="#B90303"/>
<path d="M154.949 67.4497L154.332 67.8023L153.626 66.4799L149.968 68.3753L149.571 67.626L153.23 65.7306L152.524 64.4082L153.142 64.0556L154.949 67.4497Z" fill="#B90303"/>
<path d="M153.891 68.9484C154.464 68.728 154.949 68.5076 155.346 68.2872L155.654 69.0365L154.905 69.4332C155.61 69.5214 156.095 69.9181 156.404 70.6674C156.844 71.7253 156.271 72.9155 154.905 73.4885C153.274 74.1497 152.084 73.4885 151.687 72.4747C151.467 71.9017 151.467 71.2846 151.819 70.8438L149.395 71.8576L149.042 71.0642L153.891 68.9484ZM153.054 70.2267C152.921 70.2707 152.833 70.3589 152.701 70.403C152.216 70.7997 152.04 71.4168 152.26 71.9898C152.613 72.8714 153.494 73.0477 154.552 72.6069C155.434 72.2543 156.007 71.4168 155.654 70.6234C155.434 70.0503 154.817 69.6977 154.156 69.8299C154.067 69.8299 153.935 69.874 153.803 69.9181L153.054 70.2267Z" fill="#B90303"/>
<path d="M155.301 75.1192C154.199 75.5159 153.935 76.3975 154.199 77.1909C154.375 77.808 154.596 78.1165 154.86 78.381L154.331 78.7336C154.111 78.5133 153.802 78.0284 153.582 77.279C153.141 75.8685 153.758 74.7225 155.169 74.2817C156.579 73.8409 157.902 74.2817 158.298 75.6481C158.739 77.1468 157.593 77.9402 156.756 78.2488C156.579 78.3369 156.447 78.2929 156.359 78.381L155.301 75.1192ZM156.667 77.3672C157.196 77.1909 157.946 76.706 157.637 75.7804C157.373 74.8988 156.491 74.8106 155.874 74.8988L156.667 77.3672Z" fill="#B90303"/>
<path d="M159.841 82.0396L159.136 82.2159L158.784 80.7172L154.772 81.6429L154.552 80.8054L158.563 79.8797L158.21 78.381L158.916 78.2047L159.841 82.0396Z" fill="#B90303"/>
<path d="M160.194 83.8029L158.607 84.0674C158.695 84.2437 158.739 84.5522 158.783 84.8608C158.96 85.9187 158.827 87.1088 157.549 87.3292C157.02 87.4174 156.668 87.2411 156.359 87.0207C155.83 86.5799 155.61 85.7424 155.433 85.0371C155.389 84.5522 155.301 84.1115 155.301 83.7588L160.062 82.9654L160.194 83.8029ZM156.05 84.5082C156.05 84.6845 156.05 84.8608 156.095 85.1694C156.227 85.8305 156.579 86.624 157.329 86.4917C158.166 86.3595 158.166 85.4779 158.122 84.8167C158.078 84.5963 158.034 84.3759 157.946 84.1996L156.05 84.5082Z" fill="#B90303"/>
<path d="M160.988 90.3268C161.076 90.6795 161.164 91.2966 161.164 91.8255C161.208 92.663 161.12 93.9854 160.106 94.0295C159.533 94.0736 159.092 93.6328 158.96 93.0597C158.872 93.765 158.519 94.294 157.858 94.338C156.58 94.3821 156.359 92.8394 156.271 91.8696C156.271 91.3407 156.227 90.7676 156.227 90.5032L160.988 90.3268ZM156.844 91.3847C156.844 91.6492 156.844 91.8255 156.844 92.09C156.888 92.663 157.065 93.5446 157.726 93.5005C158.431 93.5005 158.563 92.7512 158.519 91.9137L158.475 91.2525L156.844 91.3847ZM159.048 91.2966L159.092 91.9578C159.136 92.619 159.357 93.2801 159.93 93.2361C160.415 93.192 160.635 92.7953 160.547 91.9137C160.547 91.6492 160.503 91.4288 160.459 91.2084L159.048 91.2966Z" fill="#B90303"/>
<path d="M161.252 96.4096L159.225 96.3215C158.475 96.2774 157.946 96.2774 157.285 96.2333C157.858 96.5419 158.211 96.7182 158.74 97.0708L161.208 98.6576L161.164 99.6715L156.359 99.5392L156.404 98.7017L158.431 98.7899C159.225 98.7899 159.621 98.834 160.415 98.9221C159.798 98.5695 159.445 98.3932 158.96 98.0846C158.211 97.5998 157.329 97.0708 156.492 96.4978L156.536 95.484L161.252 95.6162L161.252 96.4096Z" fill="#B90303"/>
<path d="M160.547 105.137L156.447 104.652L156.403 105.137L154.243 104.828L154.332 104.123L155.874 104.255L156.271 100.949L154.728 100.729L154.816 100.024L156.976 100.244L156.932 100.641C157.197 100.905 157.549 101.082 157.858 101.214C158.431 101.434 159.048 101.611 159.753 101.699L160.988 101.875L160.547 105.137ZM159.401 102.492C158.784 102.404 158.166 102.228 157.638 102.051C157.329 101.919 157.064 101.743 156.8 101.567L156.536 103.77L160.018 104.167L160.194 102.58L159.401 102.492Z" fill="#B90303"/>
<path d="M157.637 106.812C156.447 106.592 155.83 107.209 155.654 108.09C155.566 108.707 155.566 109.06 155.61 109.457L154.949 109.501C154.86 109.148 154.86 108.619 154.993 107.87C155.301 106.415 156.403 105.754 157.814 106.019C159.224 106.283 160.194 107.341 159.929 108.751C159.621 110.294 158.166 110.426 157.285 110.25C157.108 110.25 156.976 110.206 156.888 110.118L157.637 106.812ZM157.77 109.501C158.343 109.633 159.224 109.545 159.401 108.575C159.577 107.694 158.872 107.165 158.254 106.988L157.77 109.501Z" fill="#B90303"/>
<path d="M155.698 115.54C153.979 115.055 153.582 113.6 153.89 112.498C154.243 111.264 155.477 110.559 156.932 110.955C158.475 111.44 159.092 112.675 158.739 113.997C158.298 115.319 157.108 115.98 155.698 115.54ZM156.667 111.837C155.654 111.528 154.728 111.925 154.464 112.719C154.199 113.512 154.772 114.349 155.874 114.658C156.623 114.878 157.769 114.79 158.078 113.776C158.387 112.763 157.549 112.101 156.667 111.837Z" fill="#B90303"/>
<path d="M134.805 142.428C134.937 142.119 135.334 141.546 135.907 140.973C137.273 139.695 139.169 139.651 140.667 141.238C142.078 142.825 142.034 144.808 140.447 146.219C139.83 146.748 139.301 147.012 139.08 147.056L138.772 146.395C139.125 146.307 139.565 146.042 139.962 145.646C141.108 144.588 141.24 143.133 140.006 141.811C138.904 140.621 137.494 140.444 136.303 141.546C135.951 141.899 135.598 142.34 135.422 142.692L134.805 142.428Z" fill="#B90303"/>
<path d="M136.789 146.704L135.951 147.365L133.791 145.91C133.483 145.69 132.954 145.337 132.645 145.117C132.733 145.469 132.998 146.263 133.174 146.792L133.835 148.952L132.998 149.613L129.868 145.954L130.529 145.469L131.984 147.277C132.292 147.673 132.733 148.114 133.086 148.643C132.91 148.202 132.777 147.806 132.557 147.056L131.808 144.544L132.292 144.147L134.408 145.558C134.805 145.866 135.378 146.263 135.775 146.571L135.819 146.527C135.51 146.042 135.158 145.514 134.849 145.117L133.571 143.221L134.232 142.737L136.789 146.704Z" fill="#B90303"/>
<path d="M126.474 150.847C125.548 149.304 126.209 148.026 127.179 147.409C128.281 146.748 129.647 147.056 130.441 148.291C131.278 149.657 130.882 151.023 129.735 151.729C128.545 152.478 127.267 152.081 126.474 150.847ZM129.735 148.82C129.207 147.938 128.281 147.541 127.532 148.026C126.826 148.467 126.694 149.481 127.267 150.406C127.708 151.112 128.545 151.773 129.471 151.2C130.309 150.627 130.22 149.569 129.735 148.82Z" fill="#B90303"/>
<path d="M123.697 154.946L123.344 154.329L124.667 153.624L122.771 149.966L123.521 149.569L125.416 153.227L126.738 152.522L127.091 153.139L123.697 154.946Z" fill="#B90303"/>
<path d="M122.155 153.933C122.375 154.506 122.595 154.991 122.816 155.387L122.066 155.696L121.67 154.946C121.582 155.652 121.185 156.137 120.435 156.445C119.378 156.886 118.187 156.313 117.614 154.946C116.953 153.316 117.614 152.125 118.628 151.729C119.201 151.508 119.818 151.508 120.259 151.861L119.245 149.437L120.039 149.084L122.155 153.933ZM120.832 153.051C120.788 152.919 120.7 152.831 120.656 152.698C120.259 152.214 119.642 152.037 119.069 152.258C118.187 152.61 118.011 153.492 118.452 154.55C118.805 155.431 119.642 156.004 120.435 155.652C121.008 155.431 121.361 154.814 121.229 154.153C121.229 154.065 121.185 153.933 121.141 153.8L120.832 153.051Z" fill="#B90303"/>
<path d="M115.983 155.255C115.587 154.153 114.705 153.889 113.912 154.153C113.295 154.329 112.986 154.55 112.722 154.814L112.369 154.285C112.589 154.065 113.074 153.756 113.824 153.536C115.234 153.095 116.38 153.712 116.821 155.123C117.262 156.533 116.821 157.856 115.454 158.252C113.956 158.693 113.162 157.547 112.854 156.71C112.766 156.533 112.81 156.401 112.722 156.313L115.983 155.255ZM113.735 156.622C113.912 157.15 114.397 157.9 115.322 157.591C116.204 157.327 116.292 156.445 116.204 155.828L113.735 156.622Z" fill="#B90303"/>
<path d="M109.107 159.839L108.931 159.134L110.429 158.781L109.504 154.77L110.341 154.55L111.267 158.561L112.765 158.208L112.942 158.913L109.107 159.839Z" fill="#B90303"/>
<path d="M107.299 160.148L107.035 158.561C106.859 158.649 106.55 158.693 106.242 158.737C105.184 158.914 103.994 158.781 103.773 157.503C103.685 156.974 103.861 156.621 104.082 156.313C104.522 155.784 105.36 155.564 106.065 155.387C106.55 155.343 106.991 155.255 107.344 155.255L108.137 160.016L107.299 160.148ZM106.594 156.004C106.418 156.004 106.242 156.004 105.933 156.048C105.272 156.181 104.478 156.533 104.611 157.283C104.743 158.12 105.624 158.12 106.286 158.076C106.506 158.032 106.726 157.988 106.903 157.9L106.594 156.004Z" fill="#B90303"/>
<path d="M100.732 160.985C100.379 161.073 99.7621 161.162 99.2332 161.162C98.3957 161.206 97.0733 161.117 97.0292 160.104C96.9851 159.531 97.4259 159.09 97.9989 158.958C97.2937 158.869 96.7647 158.517 96.7207 157.856C96.6766 156.577 98.2193 156.357 99.1891 156.269C99.718 156.269 100.291 156.225 100.556 156.225L100.732 160.985ZM99.718 156.798C99.4536 156.798 99.2772 156.798 99.0128 156.798C98.4397 156.842 97.5582 157.018 97.6022 157.679C97.6022 158.385 98.3516 158.517 99.1891 158.473L99.8503 158.429L99.718 156.798ZM99.8503 159.046L99.1891 159.09C98.5279 159.134 97.8667 159.354 97.9108 159.927C97.9549 160.412 98.3516 160.633 99.2332 160.544C99.4976 160.544 99.718 160.5 99.9384 160.456L99.8503 159.046Z" fill="#B90303"/>
<path d="M94.6931 161.206L94.7812 159.178C94.8253 158.429 94.8253 157.9 94.8694 157.238C94.5608 157.811 94.3845 158.164 94.0319 158.693L92.445 161.161L91.4312 161.117L91.5635 156.313L92.401 156.357L92.3128 158.385C92.3128 159.178 92.2687 159.575 92.1806 160.368C92.5332 159.751 92.7095 159.398 93.0181 158.913C93.5029 158.164 94.0319 157.283 94.6049 156.445L95.6187 156.489L95.4865 161.294L94.6931 161.206Z" fill="#B90303"/>
<path d="M86.0095 160.544L86.4944 156.445L86.0095 156.401L86.318 154.241L87.0233 154.329L86.8911 155.872L90.197 156.269L90.4174 154.726L91.1227 154.814L90.9023 156.974L90.5055 156.93C90.2411 157.194 90.0648 157.547 89.9325 157.856C89.7121 158.429 89.5358 159.046 89.4477 159.751L89.2713 160.985L86.0095 160.544ZM88.5661 159.398C88.6542 158.781 88.8305 158.164 89.0069 157.635C89.1391 157.327 89.3154 157.062 89.4917 156.798L87.2878 156.533L86.8911 160.015L88.4779 160.192L88.5661 159.398Z" fill="#B90303"/>
<path d="M84.2463 157.635C84.4667 156.445 83.8496 155.828 82.968 155.652C82.3509 155.564 81.9983 155.564 81.6016 155.608L81.5575 154.947C81.9101 154.858 82.4391 154.858 83.1884 154.991C84.643 155.299 85.3042 156.401 85.0397 157.812C84.7753 159.222 83.7174 160.192 82.3068 159.928C80.7641 159.619 80.6319 158.164 80.8082 157.283C80.8082 157.106 80.8522 156.974 80.9404 156.886L84.2463 157.635ZM81.6016 157.724C81.4694 158.297 81.5575 159.178 82.5272 159.355C83.4088 159.531 83.9378 158.826 84.1141 158.208L81.6016 157.724Z" fill="#B90303"/>
<path d="M75.5627 155.652C76.0475 153.933 77.5021 153.536 78.6041 153.845C79.8383 154.197 80.5436 155.431 80.1469 156.886C79.662 158.429 78.4278 159.046 77.1054 158.693C75.739 158.296 75.1219 157.062 75.5627 155.652ZM79.2212 156.666C79.5298 155.652 79.1331 154.726 78.3396 154.462C77.5462 154.197 76.7087 154.77 76.4002 155.872C76.1798 156.621 76.2679 157.768 77.2818 158.076C78.2515 158.341 78.9567 157.547 79.2212 156.666Z" fill="#B90303"/>
<path d="M134.805 142.428C134.937 142.119 135.334 141.546 135.907 140.973C137.273 139.695 139.169 139.651 140.667 141.238C142.078 142.825 142.034 144.808 140.447 146.219C139.83 146.748 139.301 147.012 139.08 147.056L138.772 146.395C139.125 146.307 139.565 146.042 139.962 145.646C141.108 144.588 141.24 143.133 140.006 141.811C138.904 140.621 137.494 140.444 136.303 141.546C135.951 141.899 135.598 142.34 135.422 142.692L134.805 142.428Z" fill="#B90303"/>
<path d="M136.789 146.704L135.951 147.365L133.791 145.91C133.483 145.69 132.954 145.337 132.645 145.117C132.733 145.469 132.998 146.263 133.174 146.792L133.835 148.952L132.998 149.613L129.868 145.954L130.529 145.469L131.984 147.277C132.292 147.673 132.733 148.114 133.086 148.643C132.91 148.202 132.777 147.806 132.557 147.056L131.808 144.544L132.292 144.147L134.408 145.558C134.805 145.866 135.378 146.263 135.775 146.571L135.819 146.527C135.51 146.042 135.158 145.514 134.849 145.117L133.571 143.221L134.232 142.737L136.789 146.704Z" fill="#B90303"/>
<path d="M126.474 150.847C125.548 149.304 126.209 148.026 127.179 147.409C128.281 146.748 129.647 147.056 130.441 148.291C131.278 149.657 130.882 151.023 129.735 151.729C128.545 152.478 127.267 152.081 126.474 150.847ZM129.735 148.82C129.207 147.938 128.281 147.541 127.532 148.026C126.826 148.467 126.694 149.481 127.267 150.406C127.708 151.112 128.545 151.773 129.471 151.2C130.309 150.627 130.22 149.569 129.735 148.82Z" fill="#B90303"/>
<path d="M123.697 154.946L123.344 154.329L124.667 153.624L122.771 149.966L123.521 149.569L125.416 153.227L126.738 152.522L127.091 153.139L123.697 154.946Z" fill="#B90303"/>
<path d="M122.155 153.933C122.375 154.506 122.595 154.991 122.816 155.387L122.066 155.696L121.67 154.946C121.582 155.652 121.185 156.137 120.435 156.445C119.378 156.886 118.187 156.313 117.614 154.946C116.953 153.316 117.614 152.125 118.628 151.729C119.201 151.508 119.818 151.508 120.259 151.861L119.245 149.437L120.039 149.084L122.155 153.933ZM120.832 153.051C120.788 152.919 120.7 152.831 120.656 152.698C120.259 152.214 119.642 152.037 119.069 152.258C118.187 152.61 118.011 153.492 118.452 154.55C118.805 155.431 119.642 156.004 120.435 155.652C121.008 155.431 121.361 154.814 121.229 154.153C121.229 154.065 121.185 153.933 121.141 153.8L120.832 153.051Z" fill="#B90303"/>
<path d="M115.983 155.255C115.587 154.153 114.705 153.889 113.912 154.153C113.295 154.329 112.986 154.55 112.722 154.814L112.369 154.285C112.589 154.065 113.074 153.756 113.824 153.536C115.234 153.095 116.38 153.712 116.821 155.123C117.262 156.533 116.821 157.856 115.454 158.252C113.956 158.693 113.162 157.547 112.854 156.71C112.766 156.533 112.81 156.401 112.722 156.313L115.983 155.255ZM113.735 156.622C113.912 157.15 114.397 157.9 115.322 157.591C116.204 157.327 116.292 156.445 116.204 155.828L113.735 156.622Z" fill="#B90303"/>
<path d="M109.107 159.839L108.931 159.134L110.429 158.781L109.504 154.77L110.341 154.55L111.267 158.561L112.765 158.208L112.942 158.913L109.107 159.839Z" fill="#B90303"/>
<path d="M107.299 160.148L107.035 158.561C106.859 158.649 106.55 158.693 106.242 158.737C105.184 158.914 103.994 158.781 103.773 157.503C103.685 156.974 103.861 156.621 104.082 156.313C104.522 155.784 105.36 155.564 106.065 155.387C106.55 155.343 106.991 155.255 107.344 155.255L108.137 160.016L107.299 160.148ZM106.594 156.004C106.418 156.004 106.242 156.004 105.933 156.048C105.272 156.181 104.478 156.533 104.611 157.283C104.743 158.12 105.624 158.12 106.286 158.076C106.506 158.032 106.726 157.988 106.903 157.9L106.594 156.004Z" fill="#B90303"/>
<path d="M100.732 160.985C100.379 161.073 99.7621 161.162 99.2332 161.162C98.3957 161.206 97.0733 161.117 97.0292 160.104C96.9851 159.531 97.4259 159.09 97.9989 158.958C97.2937 158.869 96.7647 158.517 96.7207 157.856C96.6766 156.577 98.2193 156.357 99.1891 156.269C99.718 156.269 100.291 156.225 100.556 156.225L100.732 160.985ZM99.718 156.798C99.4536 156.798 99.2772 156.798 99.0128 156.798C98.4397 156.842 97.5582 157.018 97.6022 157.679C97.6022 158.385 98.3516 158.517 99.1891 158.473L99.8503 158.429L99.718 156.798ZM99.8503 159.046L99.1891 159.09C98.5279 159.134 97.8667 159.354 97.9108 159.927C97.9549 160.412 98.3516 160.633 99.2332 160.544C99.4976 160.544 99.718 160.5 99.9384 160.456L99.8503 159.046Z" fill="#B90303"/>
<path d="M94.6931 161.206L94.7812 159.178C94.8253 158.429 94.8253 157.9 94.8694 157.238C94.5608 157.811 94.3845 158.164 94.0319 158.693L92.445 161.161L91.4312 161.117L91.5635 156.313L92.401 156.357L92.3128 158.385C92.3128 159.178 92.2687 159.575 92.1806 160.368C92.5332 159.751 92.7095 159.398 93.0181 158.913C93.5029 158.164 94.0319 157.283 94.6049 156.445L95.6187 156.489L95.4865 161.294L94.6931 161.206Z" fill="#B90303"/>
<path d="M86.0095 160.544L86.4944 156.445L86.0095 156.401L86.318 154.241L87.0233 154.329L86.8911 155.872L90.197 156.269L90.4174 154.726L91.1227 154.814L90.9023 156.974L90.5055 156.93C90.2411 157.194 90.0648 157.547 89.9325 157.856C89.7121 158.429 89.5358 159.046 89.4477 159.751L89.2713 160.985L86.0095 160.544ZM88.5661 159.398C88.6542 158.781 88.8305 158.164 89.0069 157.635C89.1391 157.327 89.3154 157.062 89.4917 156.798L87.2878 156.533L86.8911 160.015L88.4779 160.192L88.5661 159.398Z" fill="#B90303"/>
<path d="M84.2463 157.635C84.4667 156.445 83.8496 155.828 82.968 155.652C82.3509 155.564 81.9983 155.564 81.6016 155.608L81.5575 154.947C81.9101 154.858 82.4391 154.858 83.1884 154.991C84.643 155.299 85.3042 156.401 85.0397 157.812C84.7753 159.222 83.7174 160.192 82.3068 159.928C80.7641 159.619 80.6319 158.164 80.8082 157.283C80.8082 157.106 80.8522 156.974 80.9404 156.886L84.2463 157.635ZM81.6016 157.724C81.4694 158.297 81.5575 159.178 82.5272 159.355C83.4088 159.531 83.9378 158.826 84.1141 158.208L81.6016 157.724Z" fill="#B90303"/>
<path d="M75.5627 155.652C76.0475 153.933 77.5021 153.536 78.6041 153.845C79.8383 154.197 80.5436 155.431 80.1469 156.886C79.662 158.429 78.4278 159.046 77.1054 158.693C75.739 158.296 75.1219 157.062 75.5627 155.652ZM79.2212 156.666C79.5298 155.652 79.1331 154.726 78.3396 154.462C77.5462 154.197 76.7087 154.77 76.4002 155.872C76.1798 156.621 76.2679 157.768 77.2818 158.076C78.2515 158.341 78.9567 157.547 79.2212 156.666Z" fill="#B90303"/>
<path d="M48.7183 134.802C49.0268 134.934 49.5998 135.331 50.1729 135.904C51.4512 137.271 51.4952 139.166 49.9084 140.665C48.3216 142.075 46.338 142.031 44.9275 140.444C44.3985 139.827 44.1341 139.298 44.09 139.078L44.7512 138.769C44.8393 139.122 45.1038 139.563 45.5005 139.959C46.5584 141.106 48.013 141.238 49.3354 140.004C50.5255 138.902 50.7018 137.491 49.5998 136.301C49.2472 135.948 48.8064 135.596 48.4538 135.419L48.7183 134.802Z" fill="#B90303"/>
<path d="M44.3987 136.83L43.7375 135.992L45.1921 133.832C45.4125 133.524 45.7651 132.995 45.9855 132.686C45.6329 132.774 44.8395 133.039 44.3105 133.215L42.1507 133.876L41.4895 133.039L45.148 129.909L45.6329 130.57L43.8257 132.025C43.4289 132.334 42.9882 132.774 42.4592 133.127C42.9 132.951 43.2967 132.818 44.0461 132.598L46.5585 131.849L46.9553 132.334L45.5447 134.449C45.2362 134.846 44.8395 135.419 44.5309 135.816L44.575 135.86C45.0599 135.551 45.5888 135.199 45.9855 134.89L47.8809 133.612L48.3658 134.273L44.3987 136.83Z" fill="#B90303"/>
<path d="M40.2995 126.471C41.8423 125.546 43.1206 126.207 43.7377 127.177C44.3988 128.279 44.0903 129.645 42.8561 130.438C41.4896 131.276 40.1232 130.879 39.4179 129.733C38.6245 128.587 39.0212 127.221 40.2995 126.471ZM42.2831 129.689C43.1646 129.16 43.5613 128.234 43.0765 127.485C42.6357 126.78 41.6219 126.648 40.6962 127.221C39.9909 127.661 39.3298 128.499 39.9028 129.425C40.4317 130.306 41.5337 130.174 42.2831 129.689Z" fill="#B90303"/>
<path d="M36.1558 123.65L36.7729 123.298L37.4782 124.62L41.1368 122.725L41.5335 123.474L37.8749 125.369L38.5802 126.692L37.9631 127.044L36.1558 123.65Z" fill="#B90303"/>
<path d="M37.2137 122.151C36.6407 122.372 36.1558 122.592 35.7591 122.812L35.4505 122.063L36.1999 121.666C35.4946 121.578 35.0097 121.181 34.7012 120.432C34.2604 119.374 34.8334 118.184 36.1999 117.611C37.8308 116.95 39.0209 117.611 39.4176 118.625C39.638 119.198 39.638 119.815 39.2854 120.256L41.7097 119.242L42.0624 120.035L37.2137 122.151ZM38.0512 120.873C38.1834 120.829 38.2716 120.741 38.4038 120.697C38.8887 120.3 39.065 119.683 38.8446 119.11C38.492 118.228 37.6104 118.052 36.5525 118.493C35.6709 118.845 35.0979 119.683 35.4505 120.476C35.6709 121.049 36.288 121.402 36.9492 121.27C37.0374 121.27 37.1696 121.226 37.3018 121.182L38.0512 120.873Z" fill="#B90303"/>
<path d="M35.8034 115.98C36.9054 115.584 37.1699 114.702 36.9054 113.909C36.7291 113.292 36.5087 112.983 36.2442 112.718L36.7732 112.366C36.9936 112.586 37.3021 113.071 37.5225 113.82C37.9633 115.231 37.3462 116.377 35.9357 116.818C34.5252 117.259 33.2028 116.818 32.8061 115.451C32.3653 113.953 33.5113 113.159 34.3488 112.851C34.5252 112.763 34.6574 112.807 34.7455 112.718L35.8034 115.98ZM34.437 113.732C33.908 113.909 33.1587 114.393 33.4673 115.319C33.7317 116.201 34.6133 116.289 35.2304 116.201L34.437 113.732Z" fill="#B90303"/>
<path d="M31.2632 109.06L31.9684 108.884L32.3211 110.382L36.3323 109.457L36.5526 110.294L32.5415 111.22L32.8941 112.718L32.1888 112.895L31.2632 109.06Z" fill="#B90303"/>
<path d="M30.9106 107.297L32.4975 107.032C32.4093 106.856 32.3652 106.547 32.3212 106.239C32.1448 105.181 32.2771 103.991 33.5554 103.77C34.0843 103.682 34.4369 103.859 34.7455 104.079C35.2744 104.52 35.4948 105.357 35.6712 106.062C35.7152 106.547 35.8034 106.988 35.8034 107.341L31.0429 108.134L30.9106 107.297ZM35.0981 106.547C35.0981 106.371 35.0981 106.195 35.054 105.886C34.9218 105.225 34.5692 104.432 33.8198 104.564C32.9823 104.696 32.9823 105.578 33.0264 106.239C33.0705 106.459 33.1146 106.68 33.2027 106.856L35.0981 106.547Z" fill="#B90303"/>
<path d="M30.1172 100.773C30.0291 100.421 29.9409 99.8035 29.9409 99.2746C29.8968 98.4371 29.985 97.1147 30.9988 97.0706C31.5718 97.0265 32.0126 97.4673 32.1449 98.0403C32.233 97.3351 32.5857 96.8061 33.2468 96.7621C34.5251 96.718 34.7455 98.2607 34.8337 99.2305C34.8337 99.7594 34.8778 100.332 34.8778 100.597L30.1172 100.773ZM32.0567 99.8035L32.0126 99.1423C31.9686 98.4811 31.7482 97.82 31.1751 97.864C30.6903 97.9081 30.4699 98.3048 30.558 99.1864C30.558 99.4509 30.6021 99.6713 30.6462 99.8917L32.0567 99.8035ZM34.2607 99.7153C34.2607 99.4509 34.2607 99.2746 34.2607 99.0101C34.2166 98.4371 34.0403 97.5555 33.3791 97.5996C32.6738 97.5996 32.5416 98.3489 32.5857 99.1864L32.6297 99.8476L34.2607 99.7153Z" fill="#B90303"/>
<path d="M29.8525 94.6901L31.8801 94.7782C32.6295 94.8223 33.1584 94.8223 33.8196 94.8664C33.2466 94.5578 32.894 94.3815 32.365 94.0289L29.8966 92.442L29.9407 91.4282L34.7453 91.5604L34.7012 92.3979L32.6736 92.3098C31.8801 92.3098 31.4834 92.2657 30.69 92.1776C31.3071 92.5302 31.6597 92.7065 32.1446 93.0151C32.894 93.4999 33.7755 94.0289 34.613 94.6019L34.569 95.6157L29.7644 95.4835L29.8525 94.6901Z" fill="#B90303"/>
<path d="M30.5581 85.9628L34.6574 86.4477L34.7015 85.9628L36.8613 86.2713L36.7732 86.9766L35.2304 86.8444L34.8337 90.1503L36.3765 90.3707L36.2883 91.0759L34.1284 90.8556L34.1725 90.4588C33.9081 90.1944 33.5554 90.0181 33.2469 89.8858C32.6738 89.6654 32.0567 89.4891 31.3515 89.4009L30.1173 89.2246L30.5581 85.9628ZM31.7482 88.5634C32.3653 88.6516 32.9824 88.8279 33.5113 89.0042C33.8199 89.1365 34.0844 89.3128 34.3488 89.4891L34.6133 87.2852L31.1311 86.8884L30.9548 88.4753L31.7482 88.5634Z" fill="#B90303"/>
<path d="M33.4228 84.2435C34.613 84.4639 35.2301 83.8468 35.4064 82.9652C35.4946 82.3481 35.4946 81.9955 35.4505 81.5988L36.1117 81.5547C36.1998 81.9074 36.1998 82.4363 36.0676 83.1856C35.759 84.6402 34.6571 85.3014 33.2465 85.037C31.836 84.7725 30.8663 83.7146 31.1307 82.3041C31.4393 80.7613 32.8939 80.6291 33.7755 80.8054C33.9518 80.8054 34.084 80.8495 34.1722 80.9376L33.4228 84.2435ZM33.3347 81.5988C32.7617 81.4666 31.8801 81.5547 31.7038 82.5245C31.5274 83.406 32.2327 83.935 32.8498 84.1113L33.3347 81.5988Z" fill="#B90303"/>
<path d="M35.4508 75.5163C37.1699 76.0011 37.5666 77.4557 37.2581 78.5577C36.9054 79.7919 35.6712 80.4972 34.2166 80.1005C32.6739 79.6156 32.0567 78.3814 32.4094 77.059C32.762 75.7367 33.9962 75.1196 35.4508 75.5163ZM34.3929 79.2189C35.4067 79.5275 36.3324 79.1307 36.5969 78.3373C36.8613 77.5439 36.2883 76.7064 35.1864 76.3978C34.437 76.1775 33.291 76.2656 32.9824 77.2794C32.762 78.2932 33.5113 78.9544 34.3929 79.2189Z" fill="#B90303"/>
<path d="M56.2998 48.6721C56.1676 48.9807 55.7709 49.5537 55.1979 50.1267C53.8314 51.405 51.936 51.4491 50.4373 49.8623C49.0268 48.2754 49.0709 46.2919 50.6577 44.8814C51.2748 44.3524 51.8038 44.0879 52.0242 44.0439L52.3327 44.705C51.9801 44.7932 51.5393 45.0577 51.1426 45.4544C49.9965 46.5123 49.8643 47.9669 51.0985 49.2892C52.2005 50.4794 53.611 50.6557 54.8011 49.5537C55.1538 49.2011 55.5064 48.7603 55.6827 48.4077L56.2998 48.6721Z" fill="#B90303"/>
<path d="M54.3165 44.3965L55.154 43.7353L57.3139 45.1899C57.6224 45.4103 58.1514 45.763 58.4599 45.9834C58.3277 45.5867 58.1073 44.8373 57.931 44.3084L57.2698 42.1485L58.1073 41.4873L61.2369 45.1459L60.5757 45.6307L59.1211 43.8235C58.8126 43.4268 58.3718 42.986 58.0191 42.4571C58.1954 42.986 58.3277 43.3827 58.5922 44.088L59.3415 46.6005L58.8566 46.9972L56.7408 45.5867C56.3001 45.3222 55.683 44.8814 55.3303 44.6169L55.2862 44.661C55.5948 45.1459 55.9474 45.6748 56.256 46.0715L57.5343 47.9669L56.8731 48.4518L54.3165 44.3965Z" fill="#B90303"/>
<path d="M64.6308 40.2529C65.5564 41.7957 64.8953 43.0739 63.9255 43.691C62.8236 44.3522 61.4571 44.0437 60.6637 42.8095C59.8262 41.443 60.2229 40.0766 61.3689 39.3713C62.5591 38.622 63.8814 38.9746 64.6308 40.2529ZM61.3689 42.2805C61.8979 43.1621 62.8236 43.5588 63.5729 43.0739C64.2782 42.6331 64.4104 41.6193 63.8374 40.6937C63.3966 39.9884 62.5591 39.3272 61.6334 39.9003C60.7959 40.4733 60.9282 41.4871 61.3689 42.2805Z" fill="#B90303"/>
<path d="M67.4076 36.1535L67.7602 36.7706L66.4378 37.4759L68.3332 41.1344L67.4957 41.5311L65.6003 37.8726L64.278 38.5779L63.9253 37.9607L67.4076 36.1535Z" fill="#B90303"/>
<path d="M68.9507 37.1677C68.7303 36.5947 68.5099 36.1098 68.2895 35.7131L69.0388 35.4046L69.4355 36.1539C69.5237 35.4486 69.9204 34.9638 70.6697 34.6552C71.7276 34.2144 72.9178 34.7875 73.4908 36.1539C74.152 37.7848 73.4908 38.975 72.477 39.3717C71.9039 39.5921 71.2868 39.5921 70.8461 39.2394L71.8599 41.6638L71.0664 42.0164L68.9507 37.1677ZM70.2289 38.0052C70.273 38.1375 70.3612 38.2256 70.4053 38.3579C70.802 38.8427 71.4191 39.019 71.9921 38.7986C72.8737 38.446 73.05 37.5644 72.6092 36.5065C72.2566 35.625 71.4191 35.0519 70.6257 35.4046C70.0526 35.625 69.7 36.2421 69.8322 36.9032C69.8322 36.9914 69.8763 37.1236 69.9204 37.2559L70.2289 38.0052Z" fill="#B90303"/>
<path d="M75.1219 35.8454C75.5186 36.9474 76.4001 37.2118 77.1936 36.9474C77.8107 36.771 78.1192 36.5506 78.3837 36.2862L78.7363 36.8151C78.5159 37.0355 78.0311 37.3441 77.2817 37.5645C75.8712 38.0053 74.7251 37.3881 74.2844 35.9776C73.8436 34.5671 74.2844 33.2447 75.6508 32.848C77.1495 32.4072 77.9429 33.5533 78.2515 34.3908C78.3396 34.5671 78.2955 34.6993 78.3837 34.7875L75.1219 35.8454ZM77.414 34.4349C77.2376 33.9059 76.7528 33.1566 75.8271 33.4651C74.9455 33.7296 74.8574 34.6112 74.9455 35.2283L77.414 34.4349Z" fill="#B90303"/>
<path d="M81.9978 31.2608L82.1741 31.9661L80.6755 32.3187L81.6011 36.3299L80.7636 36.5503L79.838 32.5391L78.3393 32.8917L78.163 32.1865L81.9978 31.2608Z" fill="#B90303"/>
<path d="M83.8492 30.9081L84.1137 32.495C84.29 32.4068 84.5985 32.3627 84.9071 32.3186C85.965 32.1423 87.1551 32.2746 87.3755 33.5529C87.4637 34.0818 87.2874 34.4344 87.067 34.743C86.6262 35.2719 85.7887 35.4923 85.0834 35.6686C84.5985 35.7127 84.1578 35.8009 83.8051 35.8009L82.9676 31.0844L83.8492 30.9081ZM84.5104 35.0956C84.6867 35.0956 84.863 35.0956 85.1716 35.0515C85.8328 34.9193 86.6262 34.5667 86.4939 33.8173C86.3617 32.9798 85.4801 32.9798 84.8189 33.0239C84.5985 33.068 84.3781 33.1121 84.2018 33.2002L84.5104 35.0956Z" fill="#B90303"/>
<path d="M90.373 30.115C90.7256 30.0268 91.3427 29.9386 91.8717 29.9386C92.7092 29.8946 94.0315 29.9827 94.0756 30.9965C94.1197 31.5696 93.6789 32.0104 93.1059 32.1426C93.8111 32.2308 94.3401 32.5834 94.3842 33.2446C94.4282 34.5229 92.8855 34.7433 91.9157 34.8314C91.3868 34.8314 90.8138 34.8755 90.5493 34.8755L90.373 30.115ZM91.2986 32.0104L91.9598 31.9663C92.621 31.9222 93.2822 31.7018 93.2381 31.1288C93.194 30.6439 92.7973 30.4235 91.9157 30.5117C91.6513 30.5117 91.4309 30.5558 91.2105 30.5998L91.2986 32.0104ZM91.4309 34.2584C91.6954 34.2584 91.8717 34.2584 92.1361 34.2584C92.7092 34.2143 93.5907 34.038 93.5467 33.3768C93.5467 32.6715 92.7973 32.5393 91.9598 32.5834L91.2986 32.6275L91.4309 34.2584Z" fill="#B90303"/>
<path d="M96.4118 29.8947L96.3236 31.9223C96.2796 32.6716 96.2796 33.2006 96.2355 33.8618C96.544 33.2887 96.7204 32.9361 97.073 32.4072L98.6598 29.9387L99.6736 29.9828L99.5414 34.7874L98.7039 34.7433L98.7921 32.7157C98.7921 31.9223 98.8361 31.5256 98.9243 30.7322C98.5717 31.3493 98.3954 31.7019 98.0868 32.1868C97.6019 32.9361 97.073 33.8177 96.5 34.6552L95.4862 34.6111L95.6184 29.8065L96.4118 29.8947Z" fill="#B90303"/>
<path d="M105.096 30.5558L104.611 34.6552L105.096 34.6992L104.787 36.8591L104.082 36.771L104.302 35.3163L100.996 34.9196L100.776 36.4624L100.071 36.3742L100.291 34.2144L100.688 34.2585C100.952 33.994 101.129 33.6413 101.261 33.3328C101.481 32.7598 101.658 32.1427 101.746 31.4374L101.922 30.2032L105.096 30.5558ZM102.539 31.7019C102.451 32.319 102.275 32.9361 102.098 33.465C101.966 33.7736 101.79 34.0381 101.613 34.3025L103.817 34.567L104.214 31.0848L102.627 30.9085L102.539 31.7019Z" fill="#B90303"/>
<path d="M106.858 33.4647C106.638 34.6548 107.255 35.2719 108.137 35.4482C108.754 35.5364 109.107 35.5364 109.503 35.4923L109.547 36.1535C109.195 36.2416 108.666 36.2416 107.916 36.1094C106.462 35.8009 105.801 34.6989 106.065 33.2884C106.33 31.8778 107.387 30.9081 108.798 31.1726C110.341 31.4811 110.473 32.9357 110.297 33.8173C110.297 33.9936 110.253 34.1259 110.164 34.214L106.858 33.4647ZM109.503 33.3765C109.635 32.8035 109.547 31.9219 108.578 31.7456C107.696 31.5693 107.167 32.2745 106.991 32.8916L109.503 33.3765Z" fill="#B90303"/>
<path d="M115.542 35.4485C115.057 37.1676 113.602 37.5643 112.501 37.2557C111.266 36.9031 110.561 35.6689 110.958 34.2143C111.443 32.6715 112.677 32.0544 113.999 32.4071C115.366 32.8038 115.983 34.038 115.542 35.4485ZM111.883 34.4347C111.575 35.4485 111.972 36.3742 112.765 36.6386C113.558 36.9031 114.396 36.3301 114.704 35.2281C114.925 34.4788 114.837 33.3327 113.823 33.0242C112.809 32.7156 112.104 33.509 111.883 34.4347Z" fill="#B90303"/>
<path d="M56.2998 48.6721C56.1676 48.9807 55.7709 49.5537 55.1979 50.1267C53.8314 51.405 51.936 51.4491 50.4373 49.8623C49.0268 48.2754 49.0709 46.2919 50.6577 44.8814C51.2748 44.3524 51.8038 44.0879 52.0242 44.0439L52.3327 44.705C51.9801 44.7932 51.5393 45.0577 51.1426 45.4544C49.9965 46.5123 49.8643 47.9669 51.0985 49.2892C52.2005 50.4794 53.611 50.6557 54.8011 49.5537C55.1538 49.2011 55.5064 48.7603 55.6827 48.4077L56.2998 48.6721Z" fill="#B90303"/>
<path d="M54.3165 44.3965L55.154 43.7353L57.3139 45.1899C57.6224 45.4103 58.1514 45.763 58.4599 45.9834C58.3277 45.5867 58.1073 44.8373 57.931 44.3084L57.2698 42.1485L58.1073 41.4873L61.2369 45.1459L60.5757 45.6307L59.1211 43.8235C58.8126 43.4268 58.3718 42.986 58.0191 42.4571C58.1954 42.986 58.3277 43.3827 58.5922 44.088L59.3415 46.6005L58.8566 46.9972L56.7408 45.5867C56.3001 45.3222 55.683 44.8814 55.3303 44.6169L55.2862 44.661C55.5948 45.1459 55.9474 45.6748 56.256 46.0715L57.5343 47.9669L56.8731 48.4518L54.3165 44.3965Z" fill="#B90303"/>
<path d="M64.6308 40.2529C65.5564 41.7957 64.8953 43.0739 63.9255 43.691C62.8236 44.3522 61.4571 44.0437 60.6637 42.8095C59.8262 41.443 60.2229 40.0766 61.3689 39.3713C62.5591 38.622 63.8814 38.9746 64.6308 40.2529ZM61.3689 42.2805C61.8979 43.1621 62.8236 43.5588 63.5729 43.0739C64.2782 42.6331 64.4104 41.6193 63.8374 40.6937C63.3966 39.9884 62.5591 39.3272 61.6334 39.9003C60.7959 40.4733 60.9282 41.4871 61.3689 42.2805Z" fill="#B90303"/>
<path d="M67.4076 36.1535L67.7602 36.7706L66.4378 37.4759L68.3332 41.1344L67.4957 41.5311L65.6003 37.8726L64.278 38.5779L63.9253 37.9607L67.4076 36.1535Z" fill="#B90303"/>
<path d="M68.9507 37.1677C68.7303 36.5947 68.5099 36.1098 68.2895 35.7131L69.0388 35.4046L69.4355 36.1539C69.5237 35.4486 69.9204 34.9638 70.6697 34.6552C71.7276 34.2144 72.9178 34.7875 73.4908 36.1539C74.152 37.7848 73.4908 38.975 72.477 39.3717C71.9039 39.5921 71.2868 39.5921 70.8461 39.2394L71.8599 41.6638L71.0664 42.0164L68.9507 37.1677ZM70.2289 38.0052C70.273 38.1375 70.3612 38.2256 70.4053 38.3579C70.802 38.8427 71.4191 39.019 71.9921 38.7986C72.8737 38.446 73.05 37.5644 72.6092 36.5065C72.2566 35.625 71.4191 35.0519 70.6257 35.4046C70.0526 35.625 69.7 36.2421 69.8322 36.9032C69.8322 36.9914 69.8763 37.1236 69.9204 37.2559L70.2289 38.0052Z" fill="#B90303"/>
<path d="M75.1219 35.8454C75.5186 36.9474 76.4001 37.2118 77.1936 36.9474C77.8107 36.771 78.1192 36.5506 78.3837 36.2862L78.7363 36.8151C78.5159 37.0355 78.0311 37.3441 77.2817 37.5645C75.8712 38.0053 74.7251 37.3881 74.2844 35.9776C73.8436 34.5671 74.2844 33.2447 75.6508 32.848C77.1495 32.4072 77.9429 33.5533 78.2515 34.3908C78.3396 34.5671 78.2955 34.6993 78.3837 34.7875L75.1219 35.8454ZM77.414 34.4349C77.2376 33.9059 76.7528 33.1566 75.8271 33.4651C74.9455 33.7296 74.8574 34.6112 74.9455 35.2283L77.414 34.4349Z" fill="#B90303"/>
<path d="M81.9978 31.2608L82.1741 31.9661L80.6755 32.3187L81.6011 36.3299L80.7636 36.5503L79.838 32.5391L78.3393 32.8917L78.163 32.1865L81.9978 31.2608Z" fill="#B90303"/>
<path d="M83.8492 30.9081L84.1137 32.495C84.29 32.4068 84.5985 32.3627 84.9071 32.3186C85.965 32.1423 87.1551 32.2746 87.3755 33.5529C87.4637 34.0818 87.2874 34.4344 87.067 34.743C86.6262 35.2719 85.7887 35.4923 85.0834 35.6686C84.5985 35.7127 84.1578 35.8009 83.8051 35.8009L82.9676 31.0844L83.8492 30.9081ZM84.5104 35.0956C84.6867 35.0956 84.863 35.0956 85.1716 35.0515C85.8328 34.9193 86.6262 34.5667 86.4939 33.8173C86.3617 32.9798 85.4801 32.9798 84.8189 33.0239C84.5985 33.068 84.3781 33.1121 84.2018 33.2002L84.5104 35.0956Z" fill="#B90303"/>
<path d="M90.373 30.115C90.7256 30.0268 91.3427 29.9386 91.8717 29.9386C92.7092 29.8946 94.0315 29.9827 94.0756 30.9965C94.1197 31.5696 93.6789 32.0104 93.1059 32.1426C93.8111 32.2308 94.3401 32.5834 94.3842 33.2446C94.4282 34.5229 92.8855 34.7433 91.9157 34.8314C91.3868 34.8314 90.8138 34.8755 90.5493 34.8755L90.373 30.115ZM91.2986 32.0104L91.9598 31.9663C92.621 31.9222 93.2822 31.7018 93.2381 31.1288C93.194 30.6439 92.7973 30.4235 91.9157 30.5117C91.6513 30.5117 91.4309 30.5558 91.2105 30.5998L91.2986 32.0104ZM91.4309 34.2584C91.6954 34.2584 91.8717 34.2584 92.1361 34.2584C92.7092 34.2143 93.5907 34.038 93.5467 33.3768C93.5467 32.6715 92.7973 32.5393 91.9598 32.5834L91.2986 32.6275L91.4309 34.2584Z" fill="#B90303"/>
<path d="M96.4118 29.8947L96.3236 31.9223C96.2796 32.6716 96.2796 33.2006 96.2355 33.8618C96.544 33.2887 96.7204 32.9361 97.073 32.4072L98.6598 29.9387L99.6736 29.9828L99.5414 34.7874L98.7039 34.7433L98.7921 32.7157C98.7921 31.9223 98.8361 31.5256 98.9243 30.7322C98.5717 31.3493 98.3954 31.7019 98.0868 32.1868C97.6019 32.9361 97.073 33.8177 96.5 34.6552L95.4862 34.6111L95.6184 29.8065L96.4118 29.8947Z" fill="#B90303"/>
<path d="M105.096 30.5558L104.611 34.6552L105.096 34.6992L104.787 36.8591L104.082 36.771L104.302 35.3163L100.996 34.9196L100.776 36.4624L100.071 36.3742L100.291 34.2144L100.688 34.2585C100.952 33.994 101.129 33.6413 101.261 33.3328C101.481 32.7598 101.658 32.1427 101.746 31.4374L101.922 30.2032L105.096 30.5558ZM102.539 31.7019C102.451 32.319 102.275 32.9361 102.098 33.465C101.966 33.7736 101.79 34.0381 101.613 34.3025L103.817 34.567L104.214 31.0848L102.627 30.9085L102.539 31.7019Z" fill="#B90303"/>
<path d="M106.858 33.4647C106.638 34.6548 107.255 35.2719 108.137 35.4482C108.754 35.5364 109.107 35.5364 109.503 35.4923L109.547 36.1535C109.195 36.2416 108.666 36.2416 107.916 36.1094C106.462 35.8009 105.801 34.6989 106.065 33.2884C106.33 31.8778 107.387 30.9081 108.798 31.1726C110.341 31.4811 110.473 32.9357 110.297 33.8173C110.297 33.9936 110.253 34.1259 110.164 34.214L106.858 33.4647ZM109.503 33.3765C109.635 32.8035 109.547 31.9219 108.578 31.7456C107.696 31.5693 107.167 32.2745 106.991 32.8916L109.503 33.3765Z" fill="#B90303"/>
<path d="M115.542 35.4485C115.057 37.1676 113.602 37.5643 112.501 37.2557C111.266 36.9031 110.561 35.6689 110.958 34.2143C111.443 32.6715 112.677 32.0544 113.999 32.4071C115.366 32.8038 115.983 34.038 115.542 35.4485ZM111.883 34.4347C111.575 35.4485 111.972 36.3742 112.765 36.6386C113.558 36.9031 114.396 36.3301 114.704 35.2281C114.925 34.4788 114.837 33.3327 113.823 33.0242C112.809 32.7156 112.104 33.509 111.883 34.4347Z" fill="#B90303"/>
</svg>
